<svg xmlns="http://www.w3.org/2000/svg" xmlns:xlink="http://www.w3.org/1999/xlink" width="500" zoomAndPan="magnify" viewBox="0 0 375 374.999991" height="500" preserveAspectRatio="xMidYMid meet" version="1.0"><defs><clipPath id="d2c560a957"><path d="M 19 194 L 38 194 L 38 212 L 19 212 Z M 19 194 " clip-rule="nonzero"/></clipPath><clipPath id="55b51d2bd0"><path d="M 22.257812 192.222656 L 38.980469 196.710938 L 34.496094 213.4375 L 17.769531 208.949219 Z M 22.257812 192.222656 " clip-rule="nonzero"/></clipPath><clipPath id="11ecfecacf"><path d="M 30.621094 194.464844 C 26 193.226562 21.25 195.96875 20.011719 200.585938 C 18.773438 205.203125 21.511719 209.953125 26.132812 211.191406 C 30.75 212.429688 35.5 209.691406 36.738281 205.074219 C 37.976562 200.453125 35.238281 195.707031 30.621094 194.464844 Z M 30.621094 194.464844 " clip-rule="nonzero"/></clipPath><clipPath id="011430d45a"><path d="M 61 169 L 79 169 L 79 187 L 61 187 Z M 61 169 " clip-rule="nonzero"/></clipPath><clipPath id="c12c8a3d1a"><path d="M 63.851562 167.546875 L 80.578125 172.035156 L 76.089844 188.761719 L 59.363281 184.273438 Z M 63.851562 167.546875 " clip-rule="nonzero"/></clipPath><clipPath id="87ef99e013"><path d="M 72.214844 169.789062 C 67.597656 168.550781 62.847656 171.292969 61.609375 175.910156 C 60.367188 180.527344 63.109375 185.277344 67.726562 186.515625 C 72.347656 187.753906 77.09375 185.015625 78.332031 180.398438 C 79.574219 175.777344 76.832031 171.03125 72.214844 169.789062 Z M 72.214844 169.789062 " clip-rule="nonzero"/></clipPath><clipPath id="1a9ae1714c"><path d="M 340 193 L 360 193 L 360 213 L 340 213 Z M 340 193 " clip-rule="nonzero"/></clipPath><clipPath id="49fa7b14a2"><path d="M 338.164062 195.410156 L 357.378906 191.207031 L 361.582031 210.421875 L 342.367188 214.625 Z M 338.164062 195.410156 " clip-rule="nonzero"/></clipPath><clipPath id="c63d69c0b7"><path d="M 347.773438 193.308594 C 342.464844 194.46875 339.105469 199.710938 340.265625 205.015625 C 341.425781 210.320312 346.667969 213.683594 351.976562 212.523438 C 357.28125 211.363281 360.644531 206.121094 359.480469 200.8125 C 358.320312 195.507812 353.078125 192.144531 347.773438 193.308594 Z M 347.773438 193.308594 " clip-rule="nonzero"/></clipPath><clipPath id="c079e13012"><path d="M 299 166 L 317 166 L 317 185 L 299 185 Z M 299 166 " clip-rule="nonzero"/></clipPath><clipPath id="95236f4dda"><path d="M 297.523438 168.867188 L 314.441406 165.167969 L 318.140625 182.085938 L 301.222656 185.785156 Z M 297.523438 168.867188 " clip-rule="nonzero"/></clipPath><clipPath id="0e0c80e604"><path d="M 305.984375 167.019531 C 301.3125 168.039062 298.351562 172.65625 299.375 177.328125 C 300.394531 182 305.011719 184.957031 309.683594 183.933594 C 314.355469 182.914062 317.3125 178.296875 316.292969 173.625 C 315.269531 168.957031 310.652344 165.996094 305.984375 167.019531 Z M 305.984375 167.019531 " clip-rule="nonzero"/></clipPath><clipPath id="22d3cf26cb"><path d="M 103 90 L 270 90 L 270 283 L 103 283 Z M 103 90 " clip-rule="nonzero"/></clipPath><clipPath id="c398982abf"><path d="M 96.429688 93.371094 L 265.003906 85.714844 L 273.921875 282.011719 L 105.34375 289.667969 Z M 96.429688 93.371094 " clip-rule="nonzero"/></clipPath><clipPath id="a5efd86d13"><path d="M 265.285156 85.703125 L 96.710938 93.359375 L 105.625 289.65625 L 274.199219 282 Z M 265.285156 85.703125 " clip-rule="nonzero"/></clipPath><clipPath id="138bec0f76"><path d="M 106 108 L 257 108 L 257 275 L 106 275 Z M 106 108 " clip-rule="nonzero"/></clipPath><clipPath id="454fe874c2"><path d="M 96.429688 93.371094 L 265.003906 85.714844 L 273.921875 282.011719 L 105.34375 289.667969 Z M 96.429688 93.371094 " clip-rule="nonzero"/></clipPath><clipPath id="5f3d11b031"><path d="M 265.285156 85.703125 L 96.710938 93.359375 L 105.625 289.65625 L 274.199219 282 Z M 265.285156 85.703125 " clip-rule="nonzero"/></clipPath></defs><g clip-path="url(#d2c560a957)"><g clip-path="url(#55b51d2bd0)"><g clip-path="url(#11ecfecacf)"><path fill="#f6f6f6" d="M 22.257812 192.222656 L 38.980469 196.710938 L 34.496094 213.4375 L 17.769531 208.949219 Z M 22.257812 192.222656 " fill-opacity="1" fill-rule="nonzero"/></g></g></g><g clip-path="url(#011430d45a)"><g clip-path="url(#c12c8a3d1a)"><g clip-path="url(#87ef99e013)"><path fill="#f6f6f6" d="M 63.851562 167.546875 L 80.578125 172.035156 L 76.089844 188.761719 L 59.363281 184.273438 Z M 63.851562 167.546875 " fill-opacity="1" fill-rule="nonzero"/></g></g></g><g clip-path="url(#1a9ae1714c)"><g clip-path="url(#49fa7b14a2)"><g clip-path="url(#c63d69c0b7)"><path fill="#f6f6f6" d="M 338.164062 195.410156 L 357.378906 191.207031 L 361.582031 210.421875 L 342.367188 214.625 Z M 338.164062 195.410156 " fill-opacity="1" fill-rule="nonzero"/></g></g></g><g clip-path="url(#c079e13012)"><g clip-path="url(#95236f4dda)"><g clip-path="url(#0e0c80e604)"><path fill="#f6f6f6" d="M 297.523438 168.867188 L 314.441406 165.167969 L 318.140625 182.085938 L 301.222656 185.785156 Z M 297.523438 168.867188 " fill-opacity="1" fill-rule="nonzero"/></g></g></g><g clip-path="url(#22d3cf26cb)"><g clip-path="url(#c398982abf)"><g clip-path="url(#a5efd86d13)"><path fill="#d81b1b" d="M 136.269531 172.601562 C 136.382812 175.097656 137.59375 177.84375 138.570312 178.699219 C 139.164062 175.648438 140.578125 171.207031 144.058594 170.226562 C 144.28125 170.164062 144.441406 169.976562 144.566406 169.667969 C 144.761719 169.171875 145.269531 167.746094 144.859375 166.960938 C 137.761719 169.785156 131.472656 167.964844 131.648438 159.457031 C 131.683594 157.714844 134.035156 156.730469 133.710938 154.40625 C 133.367188 151.921875 135.90625 151.105469 137.636719 151.136719 C 140.203125 151.183594 142.457031 153.039062 143.246094 155.867188 C 140.753906 152.1875 136.429688 152.535156 136.214844 153.621094 C 135.933594 155.042969 136.761719 155.683594 138.8125 156 C 137.457031 156.304688 136.5625 157.355469 138.425781 157.738281 C 140.773438 158.421875 143.8125 160.863281 144.816406 157.605469 C 145.351562 156.082031 146.75 153.824219 145.804688 152.777344 C 143.113281 149.800781 139.035156 142.964844 141.949219 125.691406 C 143.421875 116.945312 147.96875 114.671875 152.910156 109.6875 C 161.230469 101.296875 169.394531 96.351562 181.28125 92.648438 C 193.050781 88.984375 199.714844 89.390625 211.222656 92.851562 C 219.761719 95.417969 228.167969 99.957031 235.324219 103.730469 C 239.097656 105.722656 243.085938 108.011719 245.996094 110.855469 C 251.359375 116.101562 250.335938 114.828125 252.40625 124.191406 C 254.011719 131.441406 264.996094 175.859375 262.785156 182.742188 C 261.835938 185.695312 260.457031 185.902344 258.753906 188.097656 C 259.46875 197.316406 260.335938 191.648438 265.476562 196.03125 C 269.21875 199.230469 270.65625 204.574219 269.589844 209.136719 C 267.371094 218.636719 260.300781 217.742188 253.933594 215.773438 C 255.152344 221.933594 254.425781 224.828125 250.910156 227.203125 C 251.519531 238.527344 248.339844 246.230469 239.289062 249.460938 C 238.59375 249.738281 237.894531 250.011719 237.199219 250.285156 C 233.585938 252.28125 234.933594 263.503906 223.695312 268.832031 C 216.96875 272.019531 218.8125 266.90625 213.757812 270.167969 C 211.902344 271.367188 209.808594 272.785156 207.535156 274.273438 C 194.367188 282.890625 180.871094 285.855469 162.183594 277.5625 C 153.566406 282.460938 151.703125 281.65625 141.972656 277.683594 C 130.9375 273.179688 127.113281 267.484375 125.558594 262.417969 C 125.246094 261.398438 124.707031 260.570312 123.804688 260.363281 C 116.789062 258.761719 112.605469 253.367188 112.03125 246.644531 C 111.96875 245.882812 111.53125 245.296875 111.039062 244.917969 C 105.136719 240.390625 104.890625 234.019531 111.097656 229.0625 C 108.550781 228.652344 106.664062 226.851562 105.671875 225.984375 C 105.441406 225.785156 105.285156 225.589844 105.183594 225.40625 L 105.15625 225.351562 C 104.523438 224.109375 106.332031 223.777344 108.203125 223.738281 C 107.507812 223.261719 106.859375 222.695312 106.28125 222.042969 C 104.816406 220.390625 103.847656 218.214844 103.949219 215.765625 C 104.308594 207.585938 112.214844 203.609375 115.195312 202.472656 C 111.636719 199.179688 110.359375 194 113.683594 190.007812 C 117.101562 185.917969 123.71875 182.847656 129.726562 183.167969 C 129.507812 181.25 129.492188 178.621094 129.945312 176.328125 C 130.304688 174.53125 131.78125 171.265625 133.824219 170.75 C 135.085938 170.433594 136.195312 170.984375 136.269531 172.601562 " fill-opacity="1" fill-rule="evenodd"/></g></g></g><g clip-path="url(#138bec0f76)"><g clip-path="url(#454fe874c2)"><g clip-path="url(#5f3d11b031)"><path fill="#f6f6f6" d="M 146.039062 148.984375 C 144.25 145.289062 144.953125 145.265625 146 140.3125 C 158.710938 136.34375 178.960938 136.996094 191.59375 139.921875 C 194.042969 140.492188 195.601562 141.089844 196.882812 141.515625 C 199.046875 142.226562 200.417969 142.4375 203.933594 141.160156 C 204.777344 140.851562 205.554688 140.316406 206.074219 141.152344 C 206.535156 141.90625 206.230469 142.257812 205.773438 142.753906 C 204.785156 143.828125 205.34375 143.519531 206.40625 143.410156 C 207.800781 143.269531 211 144.441406 214.492188 145.636719 C 221.75 148.109375 231.449219 152.765625 235.703125 158.074219 C 239.976562 163.40625 237.472656 169.628906 231.195312 168.296875 C 228.410156 167.710938 225.726562 165.828125 225.34375 164.226562 C 227.414062 165.847656 233.476562 168.777344 235.714844 165.207031 C 236.789062 163.5 236.875 161.199219 235.296875 159.015625 C 235.804688 162.449219 232.984375 164.246094 229.753906 163.839844 C 226.765625 163.46875 223.140625 161.277344 223.207031 159.207031 C 223.316406 155.984375 226.3125 155.417969 228.597656 156.742188 C 225.941406 156.496094 224.542969 157.847656 224.886719 158.933594 C 225.195312 159.914062 228.753906 157.738281 230.089844 160.460938 C 228.066406 159.558594 226.125 161.109375 226.585938 161.402344 C 228.675781 162.660156 231.066406 162.71875 232.519531 161.960938 C 233.894531 161.242188 234.429688 159.796875 233.082031 157.945312 C 231.046875 155.164062 219.019531 149.523438 215.160156 148.488281 C 213.949219 148.167969 213.144531 148.222656 212.296875 148.636719 C 211.132812 149.199219 209.894531 150.429688 207.445312 152.261719 C 204.195312 150.914062 205.882812 149.828125 200.804688 150.453125 C 195.679688 151.082031 196.839844 150.21875 195.332031 148.96875 C 193.21875 147.222656 189.480469 150.578125 188.671875 153.621094 C 188.074219 155.859375 185.382812 153.164062 186.570312 150.007812 C 188.414062 145.078125 191.960938 145.730469 194.210938 143.316406 C 188.289062 139.242188 159.261719 138.351562 150.550781 141.261719 L 153.324219 142.101562 C 155.304688 142.179688 158.261719 140.96875 162.449219 145.550781 C 163.285156 146.464844 163.957031 146.855469 164.125 147.285156 C 164.269531 147.660156 164.511719 147.714844 164.578125 147.546875 C 164.660156 147.332031 164.371094 146.613281 164.144531 146.128906 C 163.972656 145.773438 164.488281 145.605469 165.480469 146.53125 C 166.164062 147.167969 167.457031 149.796875 168.226562 151.402344 C 168.625 152.238281 168.402344 152.261719 167.65625 152.554688 C 166.539062 153 166.296875 152.996094 165.921875 152.949219 C 165.089844 152.835938 165.464844 151.75 164.214844 150.886719 C 162.582031 149.753906 161.460938 151.285156 159.621094 149.632812 C 158.875 148.960938 158.878906 148.652344 158.554688 148.714844 C 158.332031 148.753906 158.445312 149.789062 158.003906 149.875 C 157.828125 149.910156 157.527344 149.832031 157.285156 149.363281 C 155.503906 145.890625 154.902344 144.164062 152.367188 144.027344 C 153.722656 144.734375 154.777344 147.042969 155.125 148.738281 C 155.257812 149.398438 154.796875 149.304688 154.15625 149.332031 C 152.863281 149.398438 150.582031 148.273438 149.480469 149.160156 C 149.054688 149.503906 149.195312 150.171875 148.371094 150.429688 C 147.8125 150.605469 146.851562 150.667969 146.039062 148.984375 Z M 168.496094 195.308594 C 170.546875 196.417969 171.460938 196.539062 171.964844 196.402344 C 172.707031 196.195312 172.578125 195.4375 173.867188 196.449219 C 175.597656 197.808594 176.667969 199.464844 178.535156 200.960938 C 183.179688 204.6875 191.804688 208 197.3125 207.585938 C 200.328125 207.359375 200.429688 209.179688 197.226562 209.351562 C 193.820312 209.527344 188.871094 209.007812 185.707031 207.449219 C 185.199219 207.199219 184.710938 206.773438 184.125 207.304688 C 177.597656 213.226562 168.992188 209.679688 163.574219 203.519531 C 156.625 207.351562 148.417969 207.042969 141.375 203.320312 C 137.3125 201.210938 137.011719 196.046875 134.734375 193.917969 C 131.902344 191.273438 129.90625 187.304688 129.699219 185.28125 C 124.660156 185.476562 118.996094 187.097656 115.230469 191.132812 C 110.433594 196.28125 116.210938 200.546875 118.671875 203.296875 C 115.15625 204.207031 106.519531 209.738281 106.179688 215.855469 C 105.777344 223.0625 114.40625 225.332031 116.886719 222.699219 C 116.121094 224.492188 114.613281 225.289062 112.890625 225.3125 C 112.550781 225.683594 109.828125 225.292969 108.039062 225.460938 C 110.71875 227.371094 115.300781 228.015625 117.996094 223.867188 C 119.449219 221.628906 120.011719 223.585938 119.328125 225.054688 C 117.15625 229.710938 102.792969 233.324219 111.671875 242.492188 C 110.96875 240 113.941406 231.679688 121.015625 231.226562 C 122.679688 231.121094 122.683594 232.363281 121.386719 232.574219 C 118.847656 232.984375 115.832031 234.355469 114.265625 240.257812 C 115.589844 238.121094 118.980469 234.378906 123.257812 235.707031 C 121.03125 235.582031 115.792969 239.503906 115.039062 245.535156 C 114.625 251.863281 119.449219 256.613281 123.949219 257.007812 C 123.765625 255.160156 123.242188 253.296875 122.976562 251.445312 C 122.824219 250.40625 123.292969 250.550781 123.398438 250.871094 C 123.652344 251.667969 125.15625 251.5 126.171875 251.246094 C 127.558594 262.679688 131.078125 268.429688 140.140625 272.570312 C 152.042969 278.007812 156.320312 271.707031 160.34375 271.820312 C 161.722656 271.859375 165.359375 273.046875 166.960938 273.339844 C 180.34375 275.789062 195.738281 274.726562 204.929688 263.207031 C 209.089844 258.179688 206.757812 251.109375 205.710938 249.316406 C 209.796875 253.910156 210.109375 258.378906 209.742188 262.457031 C 210.976562 260.757812 211.15625 256.085938 210.238281 253.902344 C 212.765625 256.835938 211.890625 261.109375 210.734375 263.488281 C 211.699219 262.679688 212.429688 261.871094 212.972656 261.085938 C 215.902344 256.8125 213.238281 253.007812 211.261719 251.265625 C 215.347656 252.691406 216.589844 257.585938 214.8125 261.636719 C 220.320312 260.726562 225.0625 255 225.835938 249.542969 C 226.144531 247.390625 226.210938 245.574219 226.105469 244.019531 C 225.574219 236.191406 218.703125 230.328125 220.035156 230.753906 C 223.835938 231.964844 226.808594 238.179688 227.785156 243.519531 C 233.160156 243.488281 237.015625 241.9375 239.140625 238.195312 C 242.441406 232.394531 239.199219 226.160156 237.210938 224.273438 C 241.292969 226.265625 242.242188 229.957031 242.390625 233.59375 C 244.941406 228.527344 244.300781 221.625 239.800781 215.945312 C 236.667969 211.988281 239.628906 211.90625 241.488281 214.542969 C 242.8125 216.421875 244.300781 218.6875 245.226562 221.210938 C 245.675781 222.441406 247.265625 219.429688 247.496094 218.511719 C 248.195312 215.714844 245.53125 213.34375 246.066406 212.140625 C 246.410156 211.363281 248.175781 212.132812 248.203125 211.261719 C 248.25 209.957031 247.140625 209.542969 246.480469 208.472656 C 245.894531 207.519531 245.371094 207.074219 246.359375 207.207031 C 246.808594 207.273438 247.320312 206.863281 247.707031 207.398438 C 248.070312 207.90625 248.394531 207.628906 248.027344 207.066406 C 247.53125 206.289062 247.269531 205.726562 246.9375 205.558594 C 246.285156 205.222656 246.117188 203.703125 247.667969 204.65625 C 250.265625 206.257812 251.359375 212.546875 252.386719 211.351562 C 254.492188 208.902344 254.246094 202.097656 253.332031 199.179688 C 252.050781 195.109375 249.828125 191.644531 247.125 190.035156 C 245.582031 189.121094 246.378906 188.261719 247.988281 189.285156 C 249.359375 190.152344 250.246094 190.683594 251.515625 192.425781 C 250.484375 190.085938 250.191406 189.03125 248.859375 188.539062 C 247.300781 187.957031 247.367188 186.738281 249.269531 187.382812 C 251.539062 188.152344 251.75 189.917969 253.375 192.367188 C 254.664062 194.308594 255.511719 194.96875 256.050781 194.761719 C 256.832031 194.457031 256.972656 192.335938 256.863281 189.632812 C 256.851562 189.417969 256.84375 188.769531 256.261719 188.667969 C 254.957031 187.855469 251.75 187.121094 250.089844 186.53125 C 245.574219 183.691406 248.863281 183.914062 244.398438 185.613281 C 241.492188 186.714844 238.15625 185.410156 236.183594 183.019531 C 235.078125 181.667969 234.050781 180.347656 234.644531 178.003906 C 235.203125 175.800781 238.320312 175.519531 239.675781 173.753906 C 240.621094 172.519531 241.234375 170.496094 241.203125 166.839844 C 241.144531 160.351562 237.730469 155.957031 235.65625 154.253906 C 238.085938 154.769531 239.636719 157.226562 240.9375 159.832031 C 241.332031 144.296875 244.878906 128.539062 231.726562 118.96875 C 214.238281 106.242188 172.363281 105.910156 153.234375 113.710938 C 145.90625 116.699219 144.402344 119.484375 144.003906 129.332031 C 143.683594 137.371094 141.296875 145.890625 146.429688 151.046875 C 147.964844 152.589844 147.070312 156.730469 145.820312 159.398438 C 145.410156 160.285156 145.726562 161.191406 146.078125 161.5625 C 147.195312 162.835938 149.433594 164.34375 150.710938 163.519531 C 151.640625 162.917969 151.828125 164.078125 150.699219 164.527344 C 149.203125 165.117188 147.753906 164.574219 147.085938 163.890625 C 146.761719 163.5625 146.488281 163.71875 146.632812 164.191406 C 146.925781 165.152344 147.285156 165.207031 148.417969 165.71875 C 148.984375 165.972656 148.925781 166.5 148.3125 166.535156 C 147.359375 166.589844 147.105469 166.582031 146.746094 166.597656 C 146.082031 166.621094 146.203125 166.664062 146.332031 167.0625 C 146.402344 167.292969 146.480469 167.636719 146.410156 168.15625 C 146.355469 168.566406 146.582031 168.453125 146.988281 168.390625 C 151.144531 167.761719 155.566406 167.113281 159.25 168.175781 C 158.078125 168.265625 148.359375 169.265625 147.789062 171.054688 C 147.539062 171.824219 148.710938 172.390625 149.449219 172.832031 C 150.390625 173.398438 150.085938 174.996094 148.914062 174.1875 C 148.042969 173.585938 146.273438 173.273438 144.9375 174.042969 C 146.066406 174.097656 147.417969 174.582031 148.140625 175.132812 C 150.175781 176.679688 148.65625 178.214844 147.859375 177.597656 C 147.027344 176.953125 145.640625 176.898438 144.9375 177.34375 C 146.410156 178.113281 146.660156 179.082031 146.957031 179.679688 C 147.9375 181.664062 145.339844 181.859375 144.902344 182.074219 C 148.359375 183.050781 146.355469 183.722656 147.386719 184.480469 C 151.351562 187.375 157.152344 184.78125 159.128906 182.128906 C 160.527344 180.257812 161.203125 181.359375 159.875 183.445312 C 154.785156 191.464844 136.171875 187.726562 135.015625 173.484375 C 134.964844 172.835938 134.800781 172.410156 133.84375 172.5625 C 132.871094 172.71875 131.597656 173.789062 131.4375 176.519531 C 131.132812 181.527344 131.96875 188.914062 136.640625 192.59375 C 138.832031 194.320312 139.78125 198.144531 141.175781 199.449219 C 145.347656 203.382812 160.066406 204.269531 166.425781 195.808594 C 167.210938 194.761719 168.007812 195.042969 168.496094 195.308594 Z M 198.046875 169.738281 C 196.933594 170.28125 195.710938 171.265625 194.886719 171.984375 C 194.589844 172.242188 194.558594 172.53125 194.257812 172.214844 C 193.988281 171.929688 193.457031 171.789062 192.441406 171.925781 C 193.703125 172.105469 193.898438 172.816406 194.253906 173.007812 C 194.453125 173.117188 194.730469 173.449219 194.453125 173.75 C 194.0625 174.183594 193.878906 175.027344 193.757812 175.636719 C 193.722656 175.828125 193.496094 175.804688 193.3125 175.738281 C 192.921875 175.597656 192.296875 175.535156 191.609375 175.765625 C 192.441406 175.828125 192.734375 176.03125 192.867188 176.152344 C 192.933594 176.210938 192.953125 176.289062 192.972656 176.417969 C 193.066406 177.042969 193.152344 178.214844 193.097656 178.960938 C 193.066406 179.433594 192.75 179.335938 192.355469 179.320312 L 187.804688 179.15625 C 189.472656 179.660156 191.386719 179.992188 193.65625 180.234375 C 193.789062 183.703125 195.265625 185.179688 195.140625 185.953125 C 195.074219 186.378906 194.515625 186.59375 192.988281 186.808594 C 200.8125 189.039062 211.425781 188.277344 214.367188 184.359375 C 215.113281 183.367188 216.351562 184.230469 215.324219 185.476562 C 210.878906 190.875 198.113281 190.746094 192.402344 188.738281 C 187.261719 186.929688 183.558594 183.355469 184.367188 177.6875 C 185.652344 168.675781 194.125 168.476562 198.046875 169.738281 Z M 237.109375 178.039062 C 239.660156 176.496094 241.335938 175.136719 241.910156 173.21875 C 242.230469 172.148438 243.070312 172.5625 244.585938 172.609375 C 247.589844 172.714844 247.878906 172.777344 247.339844 178.121094 C 247.078125 180.722656 246.339844 180.949219 245.183594 182.117188 C 243.820312 183.492188 242.273438 184.097656 240.542969 183.527344 C 237.75 182.597656 235.0625 179.273438 237.109375 178.039062 Z M 158.902344 164.871094 C 157.441406 164.535156 156.316406 163.992188 154.890625 164.558594 C 154.523438 164.707031 154.054688 164.777344 153.71875 165.054688 C 153.230469 165.46875 151.601562 165.59375 152.105469 164.191406 C 152.367188 163.449219 153.078125 163.949219 153.582031 161.9375 C 153.734375 161.316406 154.441406 160.714844 155.140625 160.539062 C 156.511719 160.191406 158.597656 160.5625 160.148438 161.140625 C 163.015625 162.214844 164.652344 163.628906 165.796875 164.953125 C 166.664062 165.953125 164.042969 167.050781 163.023438 166.382812 C 161.632812 165.476562 161.1875 165.390625 158.902344 164.871094 Z M 196.925781 166.152344 C 195.292969 165.714844 194.039062 165.0625 192.449219 165.632812 C 191.675781 165.910156 190.789062 166.136719 190.0625 166.398438 C 189.074219 166.75 188.75 165.628906 189.335938 165.101562 C 189.933594 164.558594 190.417969 164.875 190.980469 162.65625 C 191.15625 161.972656 191.945312 161.332031 192.722656 161.167969 C 194.257812 160.839844 196.585938 161.34375 198.316406 162.058594 C 201.523438 163.378906 203.511719 165.632812 204.792969 167.160156 C 205.761719 168.316406 204.046875 169.363281 202.90625 168.578125 C 201.347656 167.503906 199.480469 166.835938 196.925781 166.152344 Z M 155.710938 161.644531 C 154.910156 161.738281 154.34375 162.121094 154.515625 162.75 C 154.640625 163.210938 154.972656 162.953125 155.964844 162.476562 C 156.609375 162.164062 157.375 162.644531 157.453125 162.261719 C 157.53125 161.882812 156.675781 161.523438 155.710938 161.644531 Z M 193.527344 162.910156 C 192.765625 162.78125 192.152344 162.984375 192.1875 163.617188 C 192.210938 164.078125 192.574219 163.929688 193.597656 163.753906 C 194.265625 163.636719 194.882812 164.292969 195.035156 163.957031 C 195.1875 163.625 194.460938 163.0625 193.527344 162.910156 Z M 208.617188 171.425781 C 208.296875 171.292969 207.9375 171.488281 207.828125 171.859375 C 207.71875 172.230469 207.894531 172.644531 208.21875 172.777344 C 208.234375 172.78125 213.601562 175.171875 215.289062 180.824219 C 215.398438 181.199219 215.757812 181.40625 216.082031 181.285156 C 216.40625 181.160156 216.582031 180.753906 216.46875 180.378906 C 214.589844 174.085938 208.636719 171.429688 208.617188 171.425781 Z M 216.914062 171.464844 C 216.648438 171.207031 216.253906 171.25 216.039062 171.546875 C 215.820312 171.847656 215.859375 172.300781 216.125 172.554688 C 216.476562 172.898438 216.824219 173.289062 217.140625 173.707031 C 218.160156 175.054688 218.867188 176.683594 219.058594 178.308594 C 219.246094 179.890625 218.957031 181.476562 218.007812 182.789062 C 217.820312 183.042969 217.609375 183.292969 217.378906 183.523438 C 217.121094 183.777344 217.097656 184.234375 217.324219 184.53125 C 217.546875 184.832031 217.941406 184.867188 218.199219 184.609375 C 218.488281 184.324219 218.746094 184.019531 218.96875 183.710938 C 220.160156 182.0625 220.53125 180.089844 220.296875 178.136719 C 220.070312 176.226562 219.253906 174.328125 218.074219 172.769531 C 217.726562 172.3125 217.335938 171.871094 216.914062 171.464844 Z M 219.652344 170.84375 C 219.90625 171.109375 220.304688 171.09375 220.53125 170.800781 C 220.761719 170.511719 220.738281 170.058594 220.484375 169.789062 C 220.480469 169.78125 217.0625 166.472656 212.535156 166.53125 C 212.195312 166.539062 211.921875 166.863281 211.929688 167.257812 C 211.941406 167.652344 212.226562 167.972656 212.566406 167.964844 C 216.625 167.910156 219.644531 170.835938 219.652344 170.84375 Z M 220.042969 160.984375 C 220.296875 160.71875 220.3125 160.265625 220.078125 159.972656 C 219.84375 159.679688 219.449219 159.65625 219.199219 159.917969 C 219.183594 159.933594 213.246094 166.5 209.550781 164.777344 C 209.230469 164.632812 208.871094 164.808594 208.746094 165.175781 C 208.621094 165.542969 208.78125 165.960938 209.101562 166.109375 C 213.558594 168.191406 220.023438 161.003906 220.042969 160.984375 Z M 205.324219 166.054688 C 205.492188 166.398438 205.871094 166.523438 206.167969 166.335938 C 206.46875 166.144531 206.570312 165.707031 206.402344 165.363281 C 206.394531 165.347656 203.53125 160.265625 198.488281 159.046875 L 198.464844 159.042969 C 195.441406 158.316406 191.386719 157.34375 189.039062 160.136719 C 188.804688 160.414062 188.8125 160.871094 189.058594 161.148438 C 189.304688 161.421875 189.703125 161.421875 189.9375 161.140625 C 191.816406 158.90625 195.488281 159.785156 198.226562 160.445312 L 198.25 160.449219 C 202.777344 161.546875 205.316406 166.039062 205.324219 166.054688 Z M 181.542969 177.015625 C 181.351562 176.691406 180.960938 176.601562 180.679688 176.820312 C 180.398438 177.039062 180.324219 177.484375 180.519531 177.8125 L 180.722656 178.160156 C 181.230469 179.085938 181.433594 180.039062 181.394531 180.839844 C 181.355469 181.566406 181.117188 182.164062 180.742188 182.472656 L 180.679688 182.527344 C 180.121094 182.921875 179.480469 182.988281 178.832031 182.84375 C 177.9375 182.652344 177.019531 182.078125 176.238281 181.4375 C 175.667969 180.964844 175.074219 180.554688 174.421875 180.382812 C 173.722656 180.199219 172.976562 180.285156 172.175781 180.84375 C 171.546875 181.285156 170.441406 181.96875 169.226562 182.300781 C 168.457031 182.511719 167.644531 182.582031 166.902344 182.351562 L 166.867188 182.339844 C 165.894531 182.035156 165.039062 181.613281 164.441406 180.996094 C 163.878906 180.410156 163.527344 179.609375 163.5 178.511719 C 163.472656 177.195312 164.113281 175.097656 165.121094 173.378906 L 165.140625 173.34375 C 165.933594 172 166.941406 170.921875 167.988281 170.714844 C 168.324219 170.648438 168.550781 170.28125 168.488281 169.890625 C 168.425781 169.5 168.101562 169.238281 167.761719 169.304688 C 166.347656 169.582031 165.074219 170.902344 164.109375 172.523438 L 164.085938 172.566406 C 162.941406 174.511719 162.222656 176.949219 162.257812 178.535156 C 162.289062 180.074219 162.800781 181.207031 163.617188 182.054688 C 164.378906 182.847656 165.40625 183.363281 166.554688 183.722656 L 166.585938 183.734375 C 167.558594 184.039062 168.582031 183.957031 169.53125 183.699219 C 170.894531 183.320312 172.132812 182.5625 172.832031 182.070312 C 173.320312 181.730469 173.757812 181.671875 174.15625 181.777344 C 174.609375 181.898438 175.066406 182.222656 175.523438 182.597656 C 176.4375 183.347656 177.523438 184.019531 178.617188 184.253906 C 179.550781 184.457031 180.488281 184.355469 181.347656 183.742188 L 181.476562 183.640625 C 182.160156 183.078125 182.578125 182.097656 182.636719 180.941406 C 182.691406 179.859375 182.429688 178.601562 181.765625 177.398438 Z M 177.148438 170.789062 C 177.433594 171.011719 177.824219 170.929688 178.011719 170.605469 C 178.203125 170.28125 178.128906 169.832031 177.84375 169.609375 C 177.835938 169.605469 175.695312 167.4375 173.679688 167.289062 L 169.152344 167.492188 C 168.808594 167.507812 168.542969 167.839844 168.5625 168.234375 C 168.578125 168.632812 168.875 168.941406 169.21875 168.925781 L 173.660156 168.722656 C 175.15625 168.867188 177.144531 170.785156 177.148438 170.789062 Z M 178.453125 167.671875 C 178.710938 167.9375 179.105469 167.921875 179.332031 167.628906 C 179.5625 167.339844 179.542969 166.882812 179.289062 166.617188 C 179.285156 166.613281 177.503906 164.886719 176.148438 164.488281 C 175.441406 164.285156 174.507812 164.265625 173.550781 164.433594 C 172.65625 164.589844 171.71875 164.914062 170.914062 165.394531 C 170.609375 165.570312 170.492188 166.003906 170.652344 166.355469 C 170.808594 166.707031 171.1875 166.847656 171.492188 166.667969 C 172.175781 166.265625 172.980469 165.988281 173.753906 165.851562 C 174.550781 165.710938 175.304688 165.71875 175.851562 165.878906 C 176.945312 166.199219 178.449219 167.667969 178.453125 167.671875 Z M 166.246094 162.6875 C 166.546875 162.886719 166.929688 162.765625 167.09375 162.421875 C 167.261719 162.078125 167.152344 161.636719 166.847656 161.441406 C 166.835938 161.433594 161.839844 158.199219 159.300781 157.589844 C 157.839844 157.242188 157.019531 157.617188 156.144531 158.011719 C 155.496094 158.308594 154.804688 158.621094 153.699219 158.523438 C 153.359375 158.5 153.058594 158.792969 153.039062 159.1875 C 153.019531 159.582031 153.28125 159.929688 153.625 159.957031 C 155.007812 160.078125 155.835938 159.703125 156.617188 159.34375 C 157.308594 159.03125 157.964844 158.734375 159.0625 158.996094 C 161.414062 159.554688 166.234375 162.679688 166.246094 162.6875 Z M 170.230469 156.796875 C 170.039062 156.464844 169.652344 156.375 169.367188 156.589844 C 169.082031 156.804688 169.007812 157.25 169.195312 157.578125 C 169.199219 157.585938 171.054688 160.785156 171.035156 162.722656 C 171.03125 163.117188 171.308594 163.445312 171.652344 163.453125 C 171.996094 163.464844 172.28125 163.148438 172.285156 162.753906 C 172.308594 160.378906 170.234375 156.804688 170.230469 156.796875 Z M 148.050781 158.375 C 147.773438 158.144531 147.382812 158.210938 147.183594 158.527344 C 146.988281 158.84375 147.050781 159.292969 147.328125 159.527344 C 147.332031 159.53125 150.402344 162.492188 151.859375 162.152344 C 153.074219 161.867188 153.378906 161.59375 153.378906 161.59375 C 153.675781 161.40625 153.78125 160.96875 153.609375 160.625 C 153.445312 160.28125 153.0625 160.15625 152.765625 160.34375 C 152.765625 160.34375 152.601562 160.511719 151.597656 160.746094 C 150.847656 160.917969 148.058594 158.382812 148.050781 158.375 Z M 179.929688 173.792969 C 180.050781 173.425781 179.886719 173.007812 179.566406 172.867188 C 179.246094 172.722656 178.886719 172.902344 178.765625 173.269531 C 178.632812 173.683594 178.453125 174.011719 178.253906 174.265625 C 177.941406 174.648438 177.558594 174.875 177.171875 174.957031 C 176.777344 175.042969 176.378906 174.996094 176.039062 174.84375 C 175.839844 174.757812 175.65625 174.628906 175.511719 174.476562 C 175.261719 174.203125 174.863281 174.21875 174.632812 174.503906 C 174.402344 174.789062 174.421875 175.246094 174.671875 175.515625 C 174.929688 175.796875 175.253906 176.023438 175.609375 176.175781 C 176.164062 176.421875 176.800781 176.503906 177.421875 176.371094 C 178.046875 176.234375 178.667969 175.871094 179.167969 175.246094 C 179.472656 174.863281 179.738281 174.378906 179.929688 173.792969 Z M 212.585938 170.34375 C 212.929688 170.328125 213.195312 169.992188 213.175781 169.597656 C 213.160156 169.203125 212.863281 168.894531 212.519531 168.910156 C 212.515625 168.910156 209.949219 169.066406 209.59375 168.636719 C 209.359375 168.34375 208.964844 168.328125 208.714844 168.59375 C 208.46875 168.863281 208.457031 169.316406 208.691406 169.605469 C 209.488281 170.578125 212.578125 170.34375 212.585938 170.34375 Z M 237.203125 169.441406 C 237.492188 169.226562 237.570312 168.78125 237.382812 168.449219 C 237.195312 168.117188 236.804688 168.019531 236.519531 168.230469 C 236.125 168.519531 235.65625 168.765625 235.136719 168.957031 C 233.632812 169.515625 231.714844 169.675781 230.011719 169.398438 C 228.386719 169.136719 226.980469 168.484375 226.386719 167.441406 C 226.304688 167.296875 226.238281 167.136719 226.1875 166.96875 C 226.078125 166.59375 225.726562 166.386719 225.398438 166.507812 C 225.074219 166.628906 224.898438 167.035156 225.007812 167.410156 C 225.089844 167.691406 225.207031 167.964844 225.351562 168.214844 C 226.160156 169.640625 227.898438 170.5 229.859375 170.816406 C 231.734375 171.121094 233.855469 170.945312 235.53125 170.320312 C 236.160156 170.089844 236.730469 169.789062 237.203125 169.441406 Z M 226.542969 170.105469 C 226.328125 169.792969 225.9375 169.738281 225.667969 169.976562 C 225.398438 170.21875 225.351562 170.667969 225.566406 170.980469 L 225.839844 171.375 C 227.121094 173.109375 229.050781 174.175781 230.941406 174.5625 C 232.871094 174.957031 234.800781 174.644531 236.003906 173.632812 L 236.164062 173.488281 C 236.433594 173.25 236.476562 172.796875 236.265625 172.484375 C 236.050781 172.171875 235.660156 172.113281 235.390625 172.355469 L 235.246094 172.480469 C 234.320312 173.257812 232.75 173.480469 231.140625 173.148438 C 229.507812 172.816406 227.855469 171.914062 226.78125 170.457031 Z M 209.746094 207.859375 C 208.566406 208.019531 207.148438 208.191406 206.3125 208.230469 C 204.683594 208.304688 201.886719 207.945312 200.332031 207.039062 C 198.78125 206.136719 195.691406 204.746094 195.394531 203.433594 C 195.089844 202.125 196.035156 201.597656 198.40625 203.230469 C 200.777344 204.859375 200.914062 205.164062 203.914062 206.042969 C 206.445312 206.785156 210.96875 205.675781 211.285156 206.691406 C 211.363281 206.949219 211.464844 207.628906 209.746094 207.859375 Z M 225.257812 179.839844 C 225.542969 180.730469 226.105469 183.839844 225.757812 185.523438 C 225.410156 187.207031 225.359375 191.390625 221.894531 194.960938 C 218.429688 198.527344 214.757812 201.617188 213.257812 201.894531 C 211.761719 202.171875 209.980469 202.878906 207.441406 202.992188 C 204.90625 203.109375 204.148438 202.378906 203.582031 203.167969 C 203.011719 203.960938 203.457031 204.429688 205.277344 204.625 C 207.101562 204.820312 209.515625 204.640625 210.484375 204.664062 C 211.453125 204.695312 210.898438 205.832031 213.308594 205.652344 C 215.71875 205.472656 216.296875 204.894531 220.394531 201.851562 C 224.488281 198.808594 226.652344 195.855469 227.179688 192.839844 C 227.707031 189.820312 227.640625 183.070312 226.691406 180.746094 C 225.738281 178.421875 224.910156 177.484375 225.257812 179.839844 Z M 185.195312 211.003906 C 183.539062 214.863281 181.6875 216.722656 179.085938 217.046875 C 174.492188 217.617188 168.46875 213.378906 165.09375 209.824219 C 164.367188 209.054688 164.613281 207.046875 166.277344 208.46875 C 169.96875 211.613281 173.382812 213.742188 178.136719 212.679688 C 181.847656 211.847656 182.960938 210.40625 183.347656 209.554688 C 183.734375 208.703125 186.214844 208.632812 185.195312 211.003906 " fill-opacity="1" fill-rule="evenodd"/></g></g></g></svg>