<svg xmlns="http://www.w3.org/2000/svg" xmlns:xlink="http://www.w3.org/1999/xlink" width="500" zoomAndPan="magnify" viewBox="0 0 375 374.999991" height="500" preserveAspectRatio="xMidYMid meet" version="1.0"><defs><g/><clipPath id="9d6b8878c3"><path d="M 47 188 L 57 188 L 57 199 L 47 199 Z M 47 188 " clip-rule="nonzero"/></clipPath><clipPath id="1ab5c2052b"><path d="M 16.542969 213.527344 L 29.769531 164.226562 L 74.375 176.191406 L 61.148438 225.496094 Z M 16.542969 213.527344 " clip-rule="nonzero"/></clipPath><clipPath id="50fa11ccac"><path d="M 16.542969 213.527344 L 29.769531 164.226562 L 74.375 176.191406 L 61.148438 225.496094 Z M 16.542969 213.527344 " clip-rule="nonzero"/></clipPath><clipPath id="8d3cb47ea4"><path d="M 53 198 L 63 198 L 63 209 L 53 209 Z M 53 198 " clip-rule="nonzero"/></clipPath><clipPath id="3ccd583d5c"><path d="M 16.542969 213.527344 L 29.769531 164.226562 L 74.375 176.191406 L 61.148438 225.496094 Z M 16.542969 213.527344 " clip-rule="nonzero"/></clipPath><clipPath id="cb96cba401"><path d="M 16.542969 213.527344 L 29.769531 164.226562 L 74.375 176.191406 L 61.148438 225.496094 Z M 16.542969 213.527344 " clip-rule="nonzero"/></clipPath><clipPath id="ef1c77df07"><path d="M 59 189 L 69 189 L 69 200 L 59 200 Z M 59 189 " clip-rule="nonzero"/></clipPath><clipPath id="6cc7f52294"><path d="M 16.542969 213.527344 L 29.769531 164.226562 L 74.375 176.191406 L 61.148438 225.496094 Z M 16.542969 213.527344 " clip-rule="nonzero"/></clipPath><clipPath id="2491f7e400"><path d="M 16.542969 213.527344 L 29.769531 164.226562 L 74.375 176.191406 L 61.148438 225.496094 Z M 16.542969 213.527344 " clip-rule="nonzero"/></clipPath><clipPath id="e1dacc8293"><path d="M 36 197 L 54 197 L 54 220 L 36 220 Z M 36 197 " clip-rule="nonzero"/></clipPath><clipPath id="54a43964f9"><path d="M 16.542969 213.527344 L 29.769531 164.226562 L 74.375 176.191406 L 61.148438 225.496094 Z M 16.542969 213.527344 " clip-rule="nonzero"/></clipPath><clipPath id="b235beedbd"><path d="M 16.542969 213.527344 L 29.769531 164.226562 L 74.375 176.191406 L 61.148438 225.496094 Z M 16.542969 213.527344 " clip-rule="nonzero"/></clipPath><clipPath id="deb48badfc"><path d="M 35 167 L 59 167 L 59 194 L 35 194 Z M 35 167 " clip-rule="nonzero"/></clipPath><clipPath id="22f6cec082"><path d="M 16.542969 213.527344 L 29.769531 164.226562 L 74.375 176.191406 L 61.148438 225.496094 Z M 16.542969 213.527344 " clip-rule="nonzero"/></clipPath><clipPath id="0808fb778c"><path d="M 16.542969 213.527344 L 29.769531 164.226562 L 74.375 176.191406 L 61.148438 225.496094 Z M 16.542969 213.527344 " clip-rule="nonzero"/></clipPath><clipPath id="1e6233bd41"><path d="M 20 194 L 35 194 L 35 209 L 20 209 Z M 20 194 " clip-rule="nonzero"/></clipPath><clipPath id="4b04d2f63f"><path d="M 16.542969 213.527344 L 29.769531 164.226562 L 74.375 176.191406 L 61.148438 225.496094 Z M 16.542969 213.527344 " clip-rule="nonzero"/></clipPath><clipPath id="fe23daa8a0"><path d="M 16.542969 213.527344 L 29.769531 164.226562 L 74.375 176.191406 L 61.148438 225.496094 Z M 16.542969 213.527344 " clip-rule="nonzero"/></clipPath><clipPath id="b96a815c1e"><path d="M 64 177 L 69 177 L 69 182 L 64 182 Z M 64 177 " clip-rule="nonzero"/></clipPath><clipPath id="67d16fa667"><path d="M 16.542969 213.527344 L 29.769531 164.226562 L 74.375 176.191406 L 61.148438 225.496094 Z M 16.542969 213.527344 " clip-rule="nonzero"/></clipPath><clipPath id="32381a68c6"><path d="M 16.542969 213.527344 L 29.769531 164.226562 L 74.375 176.191406 L 61.148438 225.496094 Z M 16.542969 213.527344 " clip-rule="nonzero"/></clipPath><clipPath id="1cfea7afa3"><path d="M 19 194 L 38 194 L 38 212 L 19 212 Z M 19 194 " clip-rule="nonzero"/></clipPath><clipPath id="714cf9e5a1"><path d="M 22.257812 192.222656 L 38.980469 196.710938 L 34.496094 213.4375 L 17.769531 208.949219 Z M 22.257812 192.222656 " clip-rule="nonzero"/></clipPath><clipPath id="5dd421aaed"><path d="M 30.621094 194.464844 C 26 193.226562 21.25 195.96875 20.011719 200.585938 C 18.773438 205.203125 21.511719 209.953125 26.132812 211.191406 C 30.75 212.429688 35.5 209.691406 36.738281 205.074219 C 37.976562 200.453125 35.238281 195.707031 30.621094 194.464844 Z M 30.621094 194.464844 " clip-rule="nonzero"/></clipPath><clipPath id="a669cfe1f6"><path d="M 61 169 L 79 169 L 79 187 L 61 187 Z M 61 169 " clip-rule="nonzero"/></clipPath><clipPath id="81f4762dd6"><path d="M 63.851562 167.546875 L 80.578125 172.035156 L 76.089844 188.761719 L 59.363281 184.273438 Z M 63.851562 167.546875 " clip-rule="nonzero"/></clipPath><clipPath id="3ae7cec1a2"><path d="M 72.214844 169.789062 C 67.597656 168.550781 62.847656 171.292969 61.609375 175.910156 C 60.367188 180.527344 63.109375 185.277344 67.726562 186.515625 C 72.347656 187.753906 77.09375 185.015625 78.332031 180.398438 C 79.574219 175.777344 76.832031 171.03125 72.214844 169.789062 Z M 72.214844 169.789062 " clip-rule="nonzero"/></clipPath><clipPath id="72f4aca805"><path d="M 320 189 L 331 189 L 331 199 L 320 199 Z M 320 189 " clip-rule="nonzero"/></clipPath><clipPath id="a13cec6e39"><path d="M 314.9375 225.730469 L 304.03125 175.859375 L 349.148438 165.992188 L 360.058594 215.859375 Z M 314.9375 225.730469 " clip-rule="nonzero"/></clipPath><clipPath id="f7e5c42995"><path d="M 359.925781 215.886719 L 349.019531 166.019531 L 303.902344 175.890625 L 314.808594 225.757812 Z M 359.925781 215.886719 " clip-rule="nonzero"/></clipPath><clipPath id="bedd6168fb"><path d="M 314 199 L 324 199 L 324 209 L 314 209 Z M 314 199 " clip-rule="nonzero"/></clipPath><clipPath id="3cb1b3d4a7"><path d="M 314.9375 225.730469 L 304.03125 175.859375 L 349.148438 165.992188 L 360.058594 215.859375 Z M 314.9375 225.730469 " clip-rule="nonzero"/></clipPath><clipPath id="e604e6faa4"><path d="M 359.925781 215.886719 L 349.019531 166.019531 L 303.902344 175.890625 L 314.808594 225.757812 Z M 359.925781 215.886719 " clip-rule="nonzero"/></clipPath><clipPath id="1d2cbfc039"><path d="M 308 189 L 319 189 L 319 200 L 308 200 Z M 308 189 " clip-rule="nonzero"/></clipPath><clipPath id="8c2e62f4b1"><path d="M 314.9375 225.730469 L 304.03125 175.859375 L 349.148438 165.992188 L 360.058594 215.859375 Z M 314.9375 225.730469 " clip-rule="nonzero"/></clipPath><clipPath id="bebec2a199"><path d="M 359.925781 215.886719 L 349.019531 166.019531 L 303.902344 175.890625 L 314.808594 225.757812 Z M 359.925781 215.886719 " clip-rule="nonzero"/></clipPath><clipPath id="9cd585a06d"><path d="M 323 199 L 340 199 L 340 221 L 323 221 Z M 323 199 " clip-rule="nonzero"/></clipPath><clipPath id="7b5a530e0a"><path d="M 314.9375 225.730469 L 304.03125 175.859375 L 349.148438 165.992188 L 360.058594 215.859375 Z M 314.9375 225.730469 " clip-rule="nonzero"/></clipPath><clipPath id="a43216c30b"><path d="M 359.925781 215.886719 L 349.019531 166.019531 L 303.902344 175.890625 L 314.808594 225.757812 Z M 359.925781 215.886719 " clip-rule="nonzero"/></clipPath><clipPath id="3a54881768"><path d="M 319 168 L 343 168 L 343 196 L 319 196 Z M 319 168 " clip-rule="nonzero"/></clipPath><clipPath id="6ec9117633"><path d="M 314.9375 225.730469 L 304.03125 175.859375 L 349.148438 165.992188 L 360.058594 215.859375 Z M 314.9375 225.730469 " clip-rule="nonzero"/></clipPath><clipPath id="92c393f2c2"><path d="M 359.925781 215.886719 L 349.019531 166.019531 L 303.902344 175.890625 L 314.808594 225.757812 Z M 359.925781 215.886719 " clip-rule="nonzero"/></clipPath><clipPath id="5102181eef"><path d="M 342 196 L 357 196 L 357 211 L 342 211 Z M 342 196 " clip-rule="nonzero"/></clipPath><clipPath id="fa8118ee58"><path d="M 314.9375 225.730469 L 304.03125 175.859375 L 349.148438 165.992188 L 360.058594 215.859375 Z M 314.9375 225.730469 " clip-rule="nonzero"/></clipPath><clipPath id="a37e1838eb"><path d="M 359.925781 215.886719 L 349.019531 166.019531 L 303.902344 175.890625 L 314.808594 225.757812 Z M 359.925781 215.886719 " clip-rule="nonzero"/></clipPath><clipPath id="08d29f7337"><path d="M 309 177 L 314 177 L 314 182 L 309 182 Z M 309 177 " clip-rule="nonzero"/></clipPath><clipPath id="50380def5c"><path d="M 314.9375 225.730469 L 304.03125 175.859375 L 349.148438 165.992188 L 360.058594 215.859375 Z M 314.9375 225.730469 " clip-rule="nonzero"/></clipPath><clipPath id="b020c3eb9e"><path d="M 359.925781 215.886719 L 349.019531 166.019531 L 303.902344 175.890625 L 314.808594 225.757812 Z M 359.925781 215.886719 " clip-rule="nonzero"/></clipPath><clipPath id="f174f6dc8d"><path d="M 340 193 L 360 193 L 360 213 L 340 213 Z M 340 193 " clip-rule="nonzero"/></clipPath><clipPath id="bb28e31793"><path d="M 338.164062 195.410156 L 357.378906 191.207031 L 361.582031 210.421875 L 342.367188 214.625 Z M 338.164062 195.410156 " clip-rule="nonzero"/></clipPath><clipPath id="a585bc78bb"><path d="M 347.773438 193.308594 C 342.464844 194.46875 339.105469 199.710938 340.265625 205.015625 C 341.425781 210.324219 346.667969 213.683594 351.976562 212.523438 C 357.28125 211.363281 360.640625 206.121094 359.480469 200.8125 C 358.320312 195.507812 353.078125 192.144531 347.773438 193.308594 Z M 347.773438 193.308594 " clip-rule="nonzero"/></clipPath><clipPath id="4fc96524b9"><path d="M 299 166 L 317 166 L 317 185 L 299 185 Z M 299 166 " clip-rule="nonzero"/></clipPath><clipPath id="8a43dad3ab"><path d="M 297.523438 168.867188 L 314.441406 165.167969 L 318.140625 182.085938 L 301.222656 185.785156 Z M 297.523438 168.867188 " clip-rule="nonzero"/></clipPath><clipPath id="50c37e8f36"><path d="M 305.980469 167.019531 C 301.3125 168.039062 298.351562 172.65625 299.375 177.328125 C 300.394531 182 305.011719 184.957031 309.683594 183.933594 C 314.355469 182.914062 317.3125 178.296875 316.292969 173.625 C 315.269531 168.957031 310.652344 165.996094 305.980469 167.019531 Z M 305.980469 167.019531 " clip-rule="nonzero"/></clipPath><clipPath id="f99895fb9d"><path d="M 131 123 L 241 123 L 241 250 L 131 250 Z M 131 123 " clip-rule="nonzero"/></clipPath><clipPath id="805594c3a1"><path d="M 126.875 125.613281 L 237.761719 120.578125 L 243.613281 249.445312 L 132.726562 254.480469 Z M 126.875 125.613281 " clip-rule="nonzero"/></clipPath><clipPath id="06166d2106"><path d="M 237.890625 120.574219 L 127.003906 125.609375 L 132.855469 254.476562 L 243.742188 249.4375 Z M 237.890625 120.574219 " clip-rule="nonzero"/></clipPath><clipPath id="22d935ee0c"><path d="M 133 135 L 233 135 L 233 245 L 133 245 Z M 133 135 " clip-rule="nonzero"/></clipPath><clipPath id="917c851c9a"><path d="M 126.875 125.613281 L 237.761719 120.578125 L 243.613281 249.445312 L 132.726562 254.480469 Z M 126.875 125.613281 " clip-rule="nonzero"/></clipPath><clipPath id="80bf0de5ed"><path d="M 237.890625 120.574219 L 127.003906 125.609375 L 132.855469 254.476562 L 243.742188 249.4375 Z M 237.890625 120.574219 " clip-rule="nonzero"/></clipPath></defs><g fill="#d81b1b" fill-opacity="1"><g transform="translate(90.922052, 219.85886)"><g><path d="M 5.6875 13.125 C 4.101562 9.738281 3.679688 6.457031 4.421875 3.28125 C 5.171875 0.101562 7.257812 -2.285156 10.6875 -3.890625 C 12.695312 -4.835938 14.664062 -5.300781 16.59375 -5.28125 C 18.519531 -5.257812 20.222656 -4.832031 21.703125 -4 C 24.722656 -2.351562 26.96875 0.03125 28.4375 3.15625 C 29.289062 4.96875 29.847656 7.003906 30.109375 9.265625 L 27.734375 9.984375 C 27.679688 8.765625 27.632812 7.816406 27.59375 7.140625 C 27.414062 5.222656 26.9375 3.4375 26.15625 1.78125 C 24.539062 -0.257812 22.570312 -1.484375 20.25 -1.890625 C 17.925781 -2.304688 15.457031 -1.898438 12.84375 -0.671875 C 9.632812 0.828125 7.554688 2.828125 6.609375 5.328125 C 5.660156 7.828125 5.832031 10.453125 7.125 13.203125 C 8.414062 15.953125 9.96875 17.726562 11.78125 18.53125 L 9.984375 19.375 C 8.359375 17.84375 6.925781 15.757812 5.6875 13.125 Z M 5.6875 13.125 "/></g></g></g><g fill="#d81b1b" fill-opacity="1"><g transform="translate(104.365115, 246.282164)"><g><path d="M 13.3125 -3.09375 L 4.59375 4.96875 L 2.203125 2.390625 L 19.78125 -13.890625 L 22.171875 -11.3125 L 14.3125 -4.03125 L 21.765625 4.015625 L 29.625 -3.265625 L 32 -0.703125 L 14.421875 15.578125 L 12.046875 13.015625 L 20.765625 4.953125 Z M 13.3125 -3.09375 "/></g></g></g><g fill="#d81b1b" fill-opacity="1"><g transform="translate(126.440248, 268.415222)"><g><path d="M 11.5625 -6.609375 L 5.921875 3.34375 L 2.828125 1.59375 L 14.625 -19.25 L 21.4375 -15.390625 C 23.5625 -14.179688 25.03125 -12.722656 25.84375 -11.015625 C 26.664062 -9.316406 26.640625 -7.691406 25.765625 -6.140625 C 24.890625 -4.597656 23.660156 -3.6875 22.078125 -3.40625 C 20.492188 -3.125 18.675781 -3.335938 16.625 -4.046875 L 19.3125 10.921875 L 15.40625 9.296875 L 13.984375 -5.234375 Z M 12.09375 -7.546875 L 14.109375 -6.390625 C 17.890625 -4.253906 20.625 -4.675781 22.3125 -7.65625 C 22.59375 -8.164062 22.785156 -8.804688 22.890625 -9.578125 C 23.148438 -11.171875 22.613281 -12.625 21.28125 -13.9375 C 19.851562 -14.738281 18.347656 -15.359375 16.765625 -15.796875 Z M 12.09375 -7.546875 "/></g></g></g><g fill="#d81b1b" fill-opacity="1"><g transform="translate(152.257545, 281.412705)"><g><path d="M 13.140625 -21.078125 L 6.3125 1.875 L 3.109375 0.921875 L 9.9375 -22.03125 Z M 13.140625 -21.078125 "/></g></g></g><g fill="#d81b1b" fill-opacity="1"><g transform="translate(167.224012, 285.794286)"><g><path d="M 7.421875 -19.265625 C 7.335938 -18.203125 7.671875 -17.1875 8.421875 -16.21875 C 9.179688 -15.25 10.128906 -14.375 11.265625 -13.59375 C 12.398438 -12.8125 13.523438 -12.019531 14.640625 -11.21875 C 15.765625 -10.425781 16.703125 -9.472656 17.453125 -8.359375 C 18.203125 -7.253906 18.523438 -6.082031 18.421875 -4.84375 C 18.265625 -2.863281 17.410156 -1.304688 15.859375 -0.171875 C 14.304688 0.953125 12.289062 1.414062 9.8125 1.21875 C 7.34375 1.019531 4.925781 0.351562 2.5625 -0.78125 L 2.703125 -2.453125 C 5.054688 -1.046875 7.09375 -0.269531 8.8125 -0.125 C 10.53125 0.0078125 11.90625 -0.300781 12.9375 -1.0625 C 13.96875 -1.820312 14.546875 -2.953125 14.671875 -4.453125 C 14.742188 -5.460938 14.414062 -6.414062 13.6875 -7.3125 C 12.96875 -8.207031 12.0625 -9.003906 10.96875 -9.703125 C 9.882812 -10.410156 8.800781 -11.128906 7.71875 -11.859375 C 6.644531 -12.597656 5.75 -13.5 5.03125 -14.5625 C 4.320312 -15.625 4.019531 -16.863281 4.125 -18.28125 C 4.238281 -19.707031 4.976562 -20.984375 6.34375 -22.109375 C 7.71875 -23.234375 9.648438 -23.695312 12.140625 -23.5 C 13.773438 -23.363281 15.816406 -22.820312 18.265625 -21.875 L 17.71875 -19.46875 C 14.582031 -21.113281 11.859375 -22.03125 9.546875 -22.21875 C 8.242188 -21.71875 7.535156 -20.734375 7.421875 -19.265625 Z M 7.421875 -19.265625 "/></g></g></g><g fill="#d81b1b" fill-opacity="1"><g transform="translate(193.583655, 287.016848)"><g><path d="M 11.25 -2.09375 L 7.78125 -1.4375 L 3.734375 -23.28125 C 2.890625 -23.332031 2.066406 -23.285156 1.265625 -23.140625 L -3.34375 -21.140625 L -4.015625 -23.609375 L 14.3125 -27.015625 L 14.59375 -24.46875 L 9.546875 -24.671875 C 8.742188 -24.523438 7.960938 -24.28125 7.203125 -23.9375 Z M 11.25 -2.09375 "/></g></g></g><g fill="#d81b1b" fill-opacity="1"><g transform="translate(219.655807, 282.045887)"><g><path d="M 11.15625 -12.84375 L 9.140625 -32.6875 L 12.34375 -34.5 L 25.296875 -14.296875 L 22.09375 -12.484375 L 11.09375 -29.921875 L 10.96875 -29.859375 L 13.171875 -7.4375 L 12.734375 -7.203125 L -4.765625 -20 L -4.90625 -19.921875 L 3.96875 -2.25 L 2.578125 -1.453125 L -8.03125 -22.984375 L -5.109375 -24.640625 Z M 11.15625 -12.84375 "/></g></g></g><g fill="#d81b1b" fill-opacity="1"><g transform="translate(252.798491, 260.917468)"><g><path d="M 0.234375 -0.265625 L -11.46875 -24.375 L -11.109375 -24.796875 L 14.546875 -17.046875 L 11.96875 -14.046875 L 5.25 -16.203125 L -1.703125 -8.03125 L 1.5 -1.765625 Z M -2.40625 -9.328125 L 3.828125 -16.65625 L -8.171875 -20.625 Z M -2.40625 -9.328125 "/></g></g></g><g fill="#d81b1b" fill-opacity="1"><g transform="translate(270.907368, 237.98087)"><g><path d="M -15.640625 -13.484375 C -14.671875 -13.046875 -13.597656 -13.019531 -12.421875 -13.40625 C -11.253906 -13.800781 -10.113281 -14.394531 -9 -15.1875 C -7.882812 -15.988281 -6.757812 -16.78125 -5.625 -17.5625 C -4.488281 -18.351562 -3.273438 -18.914062 -1.984375 -19.25 C -0.703125 -19.582031 0.507812 -19.492188 1.65625 -18.984375 C 3.457031 -18.171875 4.628906 -16.835938 5.171875 -14.984375 C 5.722656 -13.140625 5.488281 -11.082031 4.46875 -8.8125 C 3.445312 -6.550781 2.003906 -4.507812 0.140625 -2.6875 L -1.40625 -3.375 C 0.726562 -5.113281 2.148438 -6.769531 2.859375 -8.34375 C 3.566406 -9.914062 3.734375 -11.3125 3.359375 -12.53125 C 2.992188 -13.757812 2.128906 -14.6875 0.765625 -15.3125 C -0.160156 -15.726562 -1.164062 -15.742188 -2.25 -15.359375 C -3.332031 -14.972656 -4.390625 -14.390625 -5.421875 -13.609375 C -6.453125 -12.828125 -7.5 -12.050781 -8.5625 -11.28125 C -9.625 -10.507812 -10.773438 -9.96875 -12.015625 -9.65625 C -13.253906 -9.34375 -14.523438 -9.476562 -15.828125 -10.0625 C -17.128906 -10.65625 -18.078125 -11.78125 -18.671875 -13.4375 C -19.265625 -15.101562 -19.050781 -17.078125 -18.03125 -19.359375 C -17.351562 -20.859375 -16.148438 -22.597656 -14.421875 -24.578125 L -12.34375 -23.25 C -14.957031 -20.84375 -16.738281 -18.585938 -17.6875 -16.484375 C -17.65625 -15.085938 -16.972656 -14.085938 -15.640625 -13.484375 Z M -15.640625 -13.484375 "/></g></g></g><g fill="#d81b1b" fill-opacity="1"><g transform="translate(107.887407, 210.028901)"><g><path d="M -8.78125 -4.140625 C -8.351562 -3.785156 -8.085938 -3.378906 -7.984375 -2.921875 C -7.890625 -2.472656 -7.960938 -2 -8.203125 -1.5 C -8.441406 -1 -8.859375 -0.6875 -9.453125 -0.5625 C -10.046875 -0.4375 -10.570312 -0.519531 -11.03125 -0.8125 C -11.5 -1.113281 -11.789062 -1.535156 -11.90625 -2.078125 C -12.03125 -2.617188 -11.929688 -3.125 -11.609375 -3.59375 C -11.296875 -4.070312 -10.851562 -4.375 -10.28125 -4.5 C -9.71875 -4.625 -9.21875 -4.503906 -8.78125 -4.140625 Z M -8.78125 -4.140625 "/></g></g></g><g fill="#d81b1b" fill-opacity="1"><g transform="translate(105.108244, 199.789038)"><g><path d="M 0 -0.359375 L -24.484375 -11.21875 L -24.46875 -11.765625 L 0.109375 -22.40625 L 0.09375 -18.453125 L -6.4375 -15.765625 L -6.484375 -5.03125 L 0.015625 -2.3125 Z M -7.859375 -5.5625 L -7.8125 -15.1875 L -19.5625 -10.484375 Z M -7.859375 -5.5625 "/></g></g></g><g fill="#d81b1b" fill-opacity="1"><g transform="translate(105.696925, 176.039873)"><g><path d="M 0.859375 -3.140625 L -22.234375 -9.46875 L -21.296875 -12.890625 L -0.09375 -7.078125 C 0.726562 -8.378906 1.253906 -9.457031 1.484375 -10.3125 L 2.140625 -16.9375 L 4.359375 -15.875 Z M 0.859375 -3.140625 "/></g></g></g><g fill="#d81b1b" fill-opacity="1"><g transform="translate(110.843271, 157.838984)"><g><path d="M 1.5625 -2.84375 L -19.4375 -14.375 L -17.734375 -17.484375 L 1.546875 -6.890625 C 2.648438 -7.984375 3.414062 -8.914062 3.84375 -9.6875 L 6.015625 -16 L 7.921875 -14.4375 Z M 1.5625 -2.84375 "/></g></g></g><g fill="#d81b1b" fill-opacity="1"><g transform="translate(120.625402, 141.176279)"><g/></g></g><g fill="#d81b1b" fill-opacity="1"><g transform="translate(127.835226, 132.614773)"><g><path d="M -11.234375 -22.15625 L 4.875 -4.4375 L 2.40625 -2.1875 L -13.703125 -19.90625 Z M -11.234375 -22.15625 "/></g></g></g><g fill="#d81b1b" fill-opacity="1"><g transform="translate(136.825515, 124.69334)"><g/></g></g><g fill="#d81b1b" fill-opacity="1"><g transform="translate(144.642782, 117.875856)"><g><path d="M 19.40625 -32.0625 L 21.09375 -32.640625 L 20.625 -6.5625 L 20.078125 -6.375 L 10 -18.59375 L 9.71875 -2.78125 L 9.171875 -2.59375 L -7.484375 -22.765625 L -3.75 -24.046875 L 8.65625 -7.59375 L 8.546875 -20.328125 L 3.421875 -26.53125 L 7.140625 -27.8125 L 19.578125 -11.375 Z M 19.40625 -32.0625 "/></g></g></g><g fill="#d81b1b" fill-opacity="1"><g transform="translate(174.467294, 108.357998)"><g><path d="M 0.359375 0 L 11.203125 -24.484375 L 11.75 -24.484375 L 22.40625 0.078125 L 18.453125 0.0625 L 15.765625 -6.453125 L 5.03125 -6.5 L 2.3125 0.015625 Z M 5.5625 -7.875 L 15.1875 -7.84375 L 10.46875 -19.578125 Z M 5.5625 -7.875 "/></g></g></g><g fill="#d81b1b" fill-opacity="1"><g transform="translate(197.962027, 108.404317)"><g><path d="M 20.328125 6.828125 L 19.75 6.640625 L 10.609375 -17.03125 L 10.46875 -17.078125 L 4.625 1.453125 L 3.09375 0.984375 L 10.296875 -21.859375 L 12.859375 -21.0625 L 20.78125 -0.3125 L 20.90625 -0.28125 L 26.140625 -16.875 L 27.65625 -16.390625 Z M 20.328125 6.828125 "/></g></g></g><g fill="#d81b1b" fill-opacity="1"><g transform="translate(222.157616, 116.558093)"><g><path d="M 9.515625 6.359375 L 6.59375 4.40625 L 18.9375 -14.078125 C 18.351562 -14.691406 17.722656 -15.226562 17.046875 -15.6875 L 12.359375 -17.453125 L 13.59375 -19.71875 L 29.09375 -9.375 L 27.515625 -7.328125 L 24.046875 -11 C 23.367188 -11.457031 22.640625 -11.832031 21.859375 -12.125 Z M 9.515625 6.359375 "/></g></g></g><g fill="#d81b1b" fill-opacity="1"><g transform="translate(239.207518, 128.745156)"><g/></g></g><g fill="#d81b1b" fill-opacity="1"><g transform="translate(247.018393, 136.242026)"><g><path d="M 14.75 -1.90625 L 19.078125 4.4375 L 17.9375 5.21875 L 13.609375 -1.125 L 3.8125 5.578125 L 1.828125 2.6875 L 21.609375 -10.828125 L 29.609375 0.859375 L 27.609375 2.21875 L 24.75 -3.9375 C 24.070312 -4.925781 23.15625 -5.898438 22 -6.859375 Z M 14.75 -1.90625 "/></g></g></g><g fill="#d81b1b" fill-opacity="1"><g transform="translate(257.791432, 151.141597)"><g><path d="M 27.59375 5.796875 C 28.570312 8.773438 28.398438 11.554688 27.078125 14.140625 C 25.765625 16.734375 23.367188 18.601562 19.890625 19.75 C 17.640625 20.488281 15.546875 20.75 13.609375 20.53125 C 11.671875 20.3125 10.035156 19.722656 8.703125 18.765625 C 6.109375 16.910156 4.320312 14.503906 3.34375 11.546875 C 2.363281 8.585938 2.546875 5.8125 3.890625 3.21875 C 5.242188 0.632812 7.660156 -1.226562 11.140625 -2.375 C 12.953125 -2.976562 14.664062 -3.257812 16.28125 -3.21875 C 17.90625 -3.1875 19.3125 -2.90625 20.5 -2.375 C 21.695312 -1.84375 22.789062 -1.125 23.78125 -0.21875 C 25.539062 1.425781 26.8125 3.429688 27.59375 5.796875 Z M 6.078125 5.234375 C 5.265625 6.160156 4.742188 7.222656 4.515625 8.421875 C 4.296875 9.617188 4.398438 10.875 4.828125 12.1875 C 5.265625 13.5 5.984375 14.5625 6.984375 15.375 C 7.984375 16.195312 9.117188 16.710938 10.390625 16.921875 C 12.929688 17.378906 15.441406 17.203125 17.921875 16.390625 C 20.960938 15.378906 23.207031 13.960938 24.65625 12.140625 C 26.289062 10.097656 26.59375 7.519531 25.5625 4.40625 C 24.050781 2.4375 22.15625 1.191406 19.875 0.671875 C 17.601562 0.160156 15.269531 0.300781 12.875 1.09375 C 9.9375 2.0625 7.671875 3.441406 6.078125 5.234375 Z M 6.078125 5.234375 "/></g></g></g><g fill="#d81b1b" fill-opacity="1"><g transform="translate(265.877616, 176.719646)"><g><path d="M 11.484375 6.71875 L 0.046875 6.796875 L 0.015625 3.25 L 23.96875 3.09375 L 24.03125 10.921875 C 24.039062 13.359375 23.507812 15.351562 22.4375 16.90625 C 21.363281 18.46875 19.9375 19.253906 18.15625 19.265625 C 16.382812 19.285156 14.984375 18.675781 13.953125 17.4375 C 12.921875 16.207031 12.203125 14.53125 11.796875 12.40625 L 0.140625 22.1875 L -0.375 17.984375 L 11.5 9.515625 Z M 12.5625 6.71875 L 12.578125 9.046875 C 12.609375 13.390625 14.335938 15.550781 17.765625 15.53125 C 18.347656 15.519531 18.992188 15.367188 19.703125 15.078125 C 21.222656 14.503906 22.21875 13.3125 22.6875 11.5 C 22.675781 9.851562 22.460938 8.238281 22.046875 6.65625 Z M 12.5625 6.71875 "/></g></g></g><g fill="#d81b1b" fill-opacity="1"><g transform="translate(265.125253, 201.174714)"><g><path d="M 6.3125 7.359375 C 6.070312 6.859375 6 6.378906 6.09375 5.921875 C 6.195312 5.472656 6.457031 5.070312 6.875 4.71875 C 7.289062 4.363281 7.796875 4.25 8.390625 4.375 C 8.984375 4.5 9.429688 4.789062 9.734375 5.25 C 10.046875 5.71875 10.140625 6.222656 10.015625 6.765625 C 9.898438 7.304688 9.597656 7.726562 9.109375 8.03125 C 8.628906 8.34375 8.101562 8.4375 7.53125 8.3125 C 6.96875 8.1875 6.5625 7.867188 6.3125 7.359375 Z M 6.3125 7.359375 "/></g></g></g><g clip-path="url(#9d6b8878c3)"><g clip-path="url(#1ab5c2052b)"><g clip-path="url(#50fa11ccac)"><path fill="#d81b1b" d="M 53.148438 188.53125 C 50.574219 187.839844 47.921875 189.367188 47.230469 191.945312 C 46.539062 194.519531 48.070312 197.167969 50.648438 197.859375 C 53.222656 198.550781 55.871094 197.023438 56.5625 194.445312 C 57.253906 191.871094 55.726562 189.222656 53.148438 188.53125 Z M 49.839844 195.269531 C 49.027344 195.050781 48.542969 194.214844 48.761719 193.402344 C 48.980469 192.585938 49.816406 192.105469 50.628906 192.324219 C 51.445312 192.542969 51.925781 193.378906 51.707031 194.191406 C 51.488281 195.003906 50.652344 195.488281 49.839844 195.269531 Z M 49.839844 195.269531 " fill-opacity="1" fill-rule="nonzero"/></g></g></g><g clip-path="url(#8d3cb47ea4)"><g clip-path="url(#3ccd583d5c)"><g clip-path="url(#cb96cba401)"><path fill="#d81b1b" d="M 53.46875 205.148438 C 54.308594 207.679688 57.046875 209.046875 59.578125 208.203125 C 62.109375 207.359375 63.476562 204.625 62.632812 202.09375 C 61.789062 199.5625 59.054688 198.195312 56.523438 199.039062 C 53.992188 199.882812 52.625 202.617188 53.46875 205.148438 Z M 58.441406 204.558594 C 58.707031 205.355469 58.273438 206.21875 57.476562 206.484375 C 56.675781 206.75 55.8125 206.320312 55.546875 205.519531 C 55.277344 204.722656 55.710938 203.855469 56.511719 203.589844 C 57.3125 203.324219 58.175781 203.757812 58.441406 204.558594 Z M 58.441406 204.558594 " fill-opacity="1" fill-rule="nonzero"/></g></g></g><g clip-path="url(#ef1c77df07)"><g clip-path="url(#6cc7f52294)"><g clip-path="url(#2491f7e400)"><path fill="#d81b1b" d="M 59.179688 193.765625 C 58.914062 196.417969 60.851562 198.785156 63.507812 199.050781 C 66.164062 199.316406 68.527344 197.382812 68.796875 194.726562 C 69.058594 192.074219 67.125 189.707031 64.46875 189.441406 C 61.816406 189.171875 59.449219 191.109375 59.179688 193.765625 Z M 63.960938 195.257812 C 63.878906 196.097656 63.132812 196.707031 62.292969 196.625 C 61.453125 196.539062 60.84375 195.792969 60.925781 194.953125 C 61.011719 194.117188 61.757812 193.503906 62.59375 193.589844 C 63.433594 193.675781 64.046875 194.421875 63.960938 195.257812 Z M 63.960938 195.257812 " fill-opacity="1" fill-rule="nonzero"/></g></g></g><g clip-path="url(#e1dacc8293)"><g clip-path="url(#54a43964f9)"><g clip-path="url(#b235beedbd)"><path fill="#d81b1b" d="M 51.667969 201.101562 C 46.910156 205.097656 45.25 209.929688 45.226562 209.996094 C 45.011719 210.640625 44.320312 210.988281 43.679688 210.777344 C 43.035156 210.566406 42.671875 209.863281 42.898438 209.230469 C 42.992188 208.9375 44.683594 203.957031 49.5625 199.648438 C 48.6875 199.332031 47.90625 198.859375 47.253906 198.257812 C 45.019531 198.417969 43.074219 197.992188 43.035156 197.980469 C 42.824219 197.933594 42.597656 197.996094 42.445312 198.152344 C 42.289062 198.308594 42.230469 198.535156 42.28125 198.75 C 42.546875 199.832031 42.429688 200.753906 41.933594 201.496094 C 40.886719 203.054688 38.492188 203.417969 38.46875 203.421875 C 38.234375 203.453125 38.039062 203.613281 37.960938 203.832031 C 37.882812 204.054688 37.933594 204.296875 38.089844 204.472656 C 38.996094 205.46875 39.375 206.402344 39.207031 207.246094 C 38.917969 208.703125 37.121094 209.566406 37.105469 209.574219 C 36.894531 209.675781 36.753906 209.878906 36.738281 210.109375 C 36.722656 210.339844 36.839844 210.5625 37.035156 210.683594 C 37.222656 210.800781 41.574219 213.601562 38.570312 218.40625 C 38.382812 218.703125 38.472656 219.089844 38.769531 219.277344 C 39.0625 219.460938 39.453125 219.371094 39.640625 219.078125 C 42.628906 214.296875 47.066406 216.964844 47.253906 217.082031 C 47.449219 217.203125 47.699219 217.207031 47.898438 217.09375 C 48.101562 216.980469 48.226562 216.765625 48.222656 216.535156 C 48.222656 216.515625 48.210938 214.519531 49.398438 213.621094 C 50.082031 213.101562 51.089844 213.035156 52.382812 213.417969 C 52.605469 213.480469 52.847656 213.417969 53.011719 213.25 C 53.175781 213.085938 53.234375 212.839844 53.164062 212.617188 C 53.15625 212.59375 52.433594 210.28125 53.378906 208.65625 C 52.554688 207.894531 51.90625 206.925781 51.527344 205.792969 C 51.019531 204.257812 51.097656 202.574219 51.667969 201.101562 Z M 51.667969 201.101562 " fill-opacity="1" fill-rule="nonzero"/></g></g></g><g clip-path="url(#deb48badfc)"><g clip-path="url(#22f6cec082)"><g clip-path="url(#0808fb778c)"><path fill="#d81b1b" d="M 39.050781 168.613281 C 41.957031 174.824219 36.300781 177.597656 36.0625 177.710938 C 35.808594 177.828125 35.640625 178.078125 35.621094 178.359375 C 35.605469 178.640625 35.742188 178.910156 35.980469 179.058594 C 36 179.074219 38.046875 180.378906 38.179688 182.183594 C 38.257812 183.226562 37.664062 184.296875 36.421875 185.367188 C 36.203125 185.550781 36.109375 185.84375 36.171875 186.121094 C 36.234375 186.398438 36.445312 186.617188 36.722656 186.695312 C 36.75 186.703125 39.589844 187.492188 40.625 189.527344 C 41.117188 190.492188 41.121094 191.628906 40.640625 192.894531 C 40.546875 193.144531 40.585938 193.429688 40.75 193.636719 C 40.914062 193.851562 41.175781 193.960938 41.441406 193.933594 C 41.480469 193.929688 43.0625 193.777344 45.074219 193.988281 C 44.976562 193.148438 45.027344 192.28125 45.257812 191.414062 C 45.660156 189.914062 46.539062 188.671875 47.679688 187.78125 C 46.144531 185.371094 44.835938 182.367188 44.222656 178.710938 C 44.109375 178.046875 44.558594 177.414062 45.230469 177.300781 C 45.898438 177.1875 46.527344 177.640625 46.640625 178.308594 C 47.203125 181.675781 48.445312 184.433594 49.878906 186.632812 C 51.074219 186.261719 52.382812 186.207031 53.679688 186.554688 C 54.792969 186.855469 55.765625 187.417969 56.558594 188.152344 C 57.503906 186.859375 58.339844 186.035156 58.359375 186.011719 C 58.550781 185.828125 58.632812 185.554688 58.574219 185.292969 C 58.515625 185.03125 58.328125 184.820312 58.074219 184.730469 C 56.789062 184.292969 55.925781 183.5625 55.496094 182.5625 C 54.597656 180.464844 55.808594 177.777344 55.820312 177.75 C 55.941406 177.492188 55.90625 177.1875 55.734375 176.960938 C 55.558594 176.734375 55.277344 176.621094 54.996094 176.667969 C 53.375 176.941406 52.175781 176.710938 51.421875 175.980469 C 50.121094 174.722656 50.429688 172.316406 50.429688 172.292969 C 50.46875 172.011719 50.351562 171.734375 50.125 171.566406 C 49.898438 171.402344 49.597656 171.371094 49.34375 171.492188 C 49.101562 171.605469 43.367188 174.199219 40.441406 167.960938 C 40.261719 167.574219 39.804688 167.410156 39.417969 167.585938 C 39.035156 167.769531 38.867188 168.226562 39.050781 168.613281 Z M 39.050781 168.613281 " fill-opacity="1" fill-rule="nonzero"/></g></g></g><g clip-path="url(#1e6233bd41)"><g clip-path="url(#4b04d2f63f)"><g clip-path="url(#fe23daa8a0)"><path fill="#d81b1b" d="M 28.894531 204.082031 L 34.300781 203.675781 C 34.429688 203.667969 34.539062 203.574219 34.574219 203.449219 C 34.609375 203.324219 34.558594 203.1875 34.449219 203.113281 L 29.972656 200.058594 L 29.566406 194.652344 C 29.558594 194.519531 29.464844 194.410156 29.339844 194.375 C 29.214844 194.339844 29.078125 194.390625 29.003906 194.5 L 25.949219 198.976562 L 20.542969 199.382812 C 20.410156 199.394531 20.300781 199.484375 20.265625 199.609375 C 20.234375 199.738281 20.28125 199.871094 20.390625 199.945312 L 24.867188 203.003906 L 25.273438 208.410156 C 25.28125 208.539062 25.375 208.648438 25.503906 208.683594 C 25.628906 208.714844 25.761719 208.667969 25.835938 208.558594 Z M 28.894531 204.082031 " fill-opacity="1" fill-rule="nonzero"/></g></g></g><g clip-path="url(#b96a815c1e)"><g clip-path="url(#67d16fa667)"><g clip-path="url(#32381a68c6)"><path fill="#d81b1b" d="M 67.304688 177.109375 C 67.59375 177.1875 67.855469 177.316406 68.089844 177.496094 C 68.328125 177.679688 68.519531 177.898438 68.667969 178.15625 C 68.816406 178.414062 68.910156 178.6875 68.949219 178.984375 C 68.988281 179.277344 68.96875 179.570312 68.890625 179.855469 C 68.8125 180.144531 68.683594 180.40625 68.503906 180.640625 C 68.324219 180.875 68.101562 181.066406 67.847656 181.214844 C 67.589844 181.367188 67.3125 181.457031 67.015625 181.496094 C 66.722656 181.535156 66.433594 181.515625 66.144531 181.441406 C 65.859375 181.363281 65.597656 181.234375 65.359375 181.054688 C 65.125 180.871094 64.933594 180.652344 64.785156 180.394531 C 64.636719 180.136719 64.542969 179.863281 64.503906 179.566406 C 64.464844 179.273438 64.484375 178.980469 64.558594 178.695312 C 64.636719 178.40625 64.765625 178.144531 64.949219 177.910156 C 65.128906 177.675781 65.347656 177.480469 65.605469 177.332031 C 65.863281 177.183594 66.140625 177.089844 66.433594 177.050781 C 66.726562 177.011719 67.019531 177.03125 67.304688 177.109375 Z M 67.304688 177.109375 " fill-opacity="1" fill-rule="nonzero"/></g></g></g><g clip-path="url(#1cfea7afa3)"><g clip-path="url(#714cf9e5a1)"><g clip-path="url(#5dd421aaed)"><path fill="#f6f6f6" d="M 22.257812 192.222656 L 38.980469 196.710938 L 34.496094 213.4375 L 17.769531 208.949219 Z M 22.257812 192.222656 " fill-opacity="1" fill-rule="nonzero"/></g></g></g><g clip-path="url(#a669cfe1f6)"><g clip-path="url(#81f4762dd6)"><g clip-path="url(#3ae7cec1a2)"><path fill="#f6f6f6" d="M 63.851562 167.546875 L 80.578125 172.035156 L 76.089844 188.761719 L 59.363281 184.273438 Z M 63.851562 167.546875 " fill-opacity="1" fill-rule="nonzero"/></g></g></g><g clip-path="url(#72f4aca805)"><g clip-path="url(#a13cec6e39)"><g clip-path="url(#f7e5c42995)"><path fill="#d81b1b" d="M 324.527344 189.207031 C 327.132812 188.636719 329.707031 190.285156 330.277344 192.890625 C 330.847656 195.496094 329.199219 198.070312 326.589844 198.640625 C 323.984375 199.210938 321.410156 197.5625 320.84375 194.957031 C 320.273438 192.351562 321.921875 189.777344 324.527344 189.207031 Z M 327.519531 196.089844 C 328.339844 195.910156 328.863281 195.097656 328.683594 194.277344 C 328.503906 193.453125 327.691406 192.933594 326.867188 193.113281 C 326.042969 193.292969 325.523438 194.105469 325.703125 194.929688 C 325.882812 195.75 326.695312 196.273438 327.519531 196.089844 Z M 327.519531 196.089844 " fill-opacity="1" fill-rule="nonzero"/></g></g></g><g clip-path="url(#bedd6168fb)"><g clip-path="url(#3cb1b3d4a7)"><g clip-path="url(#e604e6faa4)"><path fill="#d81b1b" d="M 323.433594 205.789062 C 322.472656 208.277344 319.675781 209.519531 317.1875 208.558594 C 314.699219 207.597656 313.460938 204.800781 314.417969 202.3125 C 315.378906 199.824219 318.175781 198.582031 320.664062 199.542969 C 323.152344 200.503906 324.394531 203.300781 323.433594 205.789062 Z M 318.492188 204.96875 C 318.1875 205.753906 318.582031 206.636719 319.367188 206.9375 C 320.152344 207.242188 321.035156 206.851562 321.339844 206.0625 C 321.644531 205.277344 321.25 204.394531 320.464844 204.089844 C 319.679688 203.789062 318.796875 204.179688 318.492188 204.96875 Z M 318.492188 204.96875 " fill-opacity="1" fill-rule="nonzero"/></g></g></g><g clip-path="url(#1d2cbfc039)"><g clip-path="url(#8c2e62f4b1)"><g clip-path="url(#bebec2a199)"><path fill="#d81b1b" d="M 318.257812 194.152344 C 318.398438 196.816406 316.355469 199.089844 313.691406 199.230469 C 311.023438 199.375 308.75 197.328125 308.609375 194.664062 C 308.46875 192 310.515625 189.726562 313.175781 189.585938 C 315.839844 189.441406 318.117188 191.488281 318.257812 194.152344 Z M 313.414062 195.421875 C 313.457031 196.265625 314.175781 196.910156 315.015625 196.863281 C 315.859375 196.820312 316.503906 196.101562 316.460938 195.257812 C 316.414062 194.417969 315.695312 193.773438 314.855469 193.816406 C 314.015625 193.863281 313.367188 194.582031 313.414062 195.421875 Z M 313.414062 195.421875 " fill-opacity="1" fill-rule="nonzero"/></g></g></g><g clip-path="url(#9cd585a06d)"><g clip-path="url(#7b5a530e0a)"><g clip-path="url(#a43216c30b)"><path fill="#d81b1b" d="M 325.417969 201.832031 C 329.988281 206.046875 331.417969 210.953125 331.4375 211.019531 C 331.621094 211.671875 332.296875 212.050781 332.949219 211.871094 C 333.601562 211.6875 333.996094 211.003906 333.800781 210.363281 C 333.71875 210.0625 332.261719 205.011719 327.59375 200.480469 C 328.480469 200.203125 329.28125 199.765625 329.960938 199.195312 C 332.183594 199.460938 334.148438 199.125 334.1875 199.117188 C 334.402344 199.078125 334.625 199.15625 334.769531 199.320312 C 334.917969 199.480469 334.96875 199.710938 334.90625 199.921875 C 334.589844 200.988281 334.664062 201.917969 335.125 202.683594 C 336.097656 204.285156 338.476562 204.761719 338.496094 204.765625 C 338.726562 204.808594 338.914062 204.976562 338.984375 205.199219 C 339.050781 205.425781 338.992188 205.667969 338.824219 205.832031 C 337.871094 206.785156 337.453125 207.699219 337.578125 208.554688 C 337.800781 210.023438 339.554688 210.96875 339.570312 210.976562 C 339.777344 211.085938 339.90625 211.296875 339.910156 211.527344 C 339.914062 211.761719 339.789062 211.976562 339.589844 212.089844 C 339.398438 212.199219 334.917969 214.792969 337.695312 219.730469 C 337.867188 220.035156 337.761719 220.417969 337.457031 220.589844 C 337.152344 220.761719 336.765625 220.652344 336.59375 220.347656 C 333.832031 215.4375 329.273438 217.894531 329.082031 218 C 328.878906 218.113281 328.632812 218.105469 328.4375 217.984375 C 328.242188 217.859375 328.125 217.640625 328.140625 217.410156 C 328.140625 217.390625 328.246094 215.398438 327.101562 214.445312 C 326.441406 213.894531 325.441406 213.777344 324.132812 214.101562 C 323.902344 214.15625 323.664062 214.078125 323.507812 213.90625 C 323.351562 213.730469 323.308594 213.484375 323.386719 213.265625 C 323.398438 213.242188 324.226562 210.964844 323.359375 209.300781 C 324.214844 208.578125 324.90625 207.640625 325.339844 206.523438 C 325.921875 205.015625 325.917969 203.328125 325.417969 201.832031 Z M 325.417969 201.832031 " fill-opacity="1" fill-rule="nonzero"/></g></g></g><g clip-path="url(#3a54881768)"><g clip-path="url(#6ec9117633)"><g clip-path="url(#92c393f2c2)"><path fill="#d81b1b" d="M 339.542969 169.96875 C 336.347656 176.039062 341.867188 179.070312 342.101562 179.195312 C 342.351562 179.328125 342.507812 179.585938 342.511719 179.867188 C 342.515625 180.148438 342.363281 180.410156 342.121094 180.546875 C 342.097656 180.558594 339.996094 181.769531 339.777344 183.5625 C 339.648438 184.601562 340.191406 185.703125 341.386719 186.828125 C 341.59375 187.023438 341.671875 187.316406 341.597656 187.59375 C 341.523438 187.867188 341.300781 188.078125 341.023438 188.136719 C 340.992188 188.144531 338.121094 188.800781 336.992188 190.785156 C 336.453125 191.730469 336.394531 192.863281 336.816406 194.148438 C 336.902344 194.40625 336.847656 194.683594 336.671875 194.886719 C 336.5 195.09375 336.234375 195.191406 335.96875 195.148438 C 335.933594 195.144531 334.359375 194.917969 332.339844 195.035156 C 332.476562 194.203125 332.464844 193.332031 332.273438 192.457031 C 331.941406 190.9375 331.125 189.65625 330.027344 188.714844 C 331.671875 186.378906 333.121094 183.4375 333.90625 179.816406 C 334.046875 179.152344 333.625 178.5 332.964844 178.359375 C 332.300781 178.214844 331.648438 178.636719 331.503906 179.296875 C 330.785156 182.636719 329.417969 185.332031 327.882812 187.464844 C 326.707031 187.039062 325.402344 186.921875 324.089844 187.207031 C 322.964844 187.453125 321.964844 187.972656 321.140625 188.667969 C 320.257812 187.332031 319.460938 186.46875 319.441406 186.445312 C 319.257812 186.25 319.1875 185.976562 319.261719 185.714844 C 319.328125 185.457031 319.53125 185.257812 319.785156 185.179688 C 321.089844 184.800781 321.988281 184.113281 322.460938 183.136719 C 323.460938 181.082031 322.375 178.339844 322.363281 178.3125 C 322.253906 178.046875 322.304688 177.746094 322.488281 177.527344 C 322.671875 177.308594 322.960938 177.210938 323.238281 177.273438 C 324.84375 177.617188 326.054688 177.445312 326.839844 176.75 C 328.195312 175.554688 328.003906 173.136719 328.003906 173.113281 C 327.976562 172.832031 328.105469 172.558594 328.339844 172.402344 C 328.574219 172.246094 328.875 172.230469 329.125 172.363281 C 329.363281 172.488281 334.972656 175.347656 338.179688 169.25 C 338.378906 168.875 338.84375 168.730469 339.222656 168.925781 C 339.597656 169.128906 339.742188 169.59375 339.542969 169.96875 Z M 339.542969 169.96875 " fill-opacity="1" fill-rule="nonzero"/></g></g></g><g clip-path="url(#5102181eef)"><g clip-path="url(#fa8118ee58)"><g clip-path="url(#a37e1838eb)"><path fill="#d81b1b" d="M 348.03125 205.875 L 342.648438 205.214844 C 342.519531 205.203125 342.414062 205.105469 342.382812 204.976562 C 342.355469 204.847656 342.414062 204.714844 342.523438 204.648438 L 347.140625 201.804688 L 347.796875 196.421875 C 347.8125 196.292969 347.910156 196.183594 348.039062 196.15625 C 348.164062 196.128906 348.300781 196.183594 348.367188 196.296875 L 351.210938 200.914062 L 356.59375 201.570312 C 356.722656 201.585938 356.828125 201.683594 356.855469 201.808594 C 356.882812 201.9375 356.828125 202.070312 356.714844 202.136719 L 352.101562 204.984375 L 351.441406 210.367188 C 351.429688 210.496094 351.332031 210.601562 351.203125 210.628906 C 351.074219 210.65625 350.945312 210.601562 350.875 210.492188 Z M 348.03125 205.875 " fill-opacity="1" fill-rule="nonzero"/></g></g></g><g clip-path="url(#08d29f7337)"><g clip-path="url(#50380def5c)"><g clip-path="url(#b020c3eb9e)"><path fill="#d81b1b" d="M 310.917969 177.136719 C 310.628906 177.199219 310.363281 177.316406 310.117188 177.484375 C 309.875 177.65625 309.671875 177.867188 309.511719 178.117188 C 309.351562 178.367188 309.246094 178.636719 309.191406 178.929688 C 309.140625 179.222656 309.144531 179.515625 309.207031 179.804688 C 309.273438 180.09375 309.390625 180.363281 309.558594 180.605469 C 309.730469 180.851562 309.9375 181.050781 310.1875 181.210938 C 310.4375 181.375 310.710938 181.480469 311.003906 181.53125 C 311.296875 181.585938 311.585938 181.578125 311.878906 181.515625 C 312.167969 181.453125 312.433594 181.335938 312.679688 181.164062 C 312.921875 180.996094 313.125 180.785156 313.285156 180.535156 C 313.445312 180.285156 313.554688 180.011719 313.605469 179.722656 C 313.65625 179.429688 313.652344 179.136719 313.589844 178.847656 C 313.523438 178.554688 313.410156 178.289062 313.238281 178.046875 C 313.070312 177.800781 312.859375 177.597656 312.609375 177.4375 C 312.359375 177.277344 312.085938 177.171875 311.792969 177.117188 C 311.5 177.066406 311.210938 177.070312 310.917969 177.136719 Z M 310.917969 177.136719 " fill-opacity="1" fill-rule="nonzero"/></g></g></g><g clip-path="url(#f174f6dc8d)"><g clip-path="url(#bb28e31793)"><g clip-path="url(#a585bc78bb)"><path fill="#f6f6f6" d="M 338.164062 195.410156 L 357.378906 191.207031 L 361.582031 210.421875 L 342.367188 214.625 Z M 338.164062 195.410156 " fill-opacity="1" fill-rule="nonzero"/></g></g></g><g clip-path="url(#4fc96524b9)"><g clip-path="url(#8a43dad3ab)"><g clip-path="url(#50c37e8f36)"><path fill="#f6f6f6" d="M 297.523438 168.867188 L 314.441406 165.167969 L 318.140625 182.085938 L 301.222656 185.785156 Z M 297.523438 168.867188 " fill-opacity="1" fill-rule="nonzero"/></g></g></g><g clip-path="url(#f99895fb9d)"><g clip-path="url(#805594c3a1)"><g clip-path="url(#06166d2106)"><path fill="#d81b1b" d="M 153.066406 177.703125 C 153.140625 179.347656 153.9375 181.152344 154.582031 181.714844 C 154.972656 179.707031 155.898438 176.789062 158.191406 176.144531 C 158.335938 176.101562 158.441406 175.980469 158.523438 175.777344 C 158.652344 175.449219 158.988281 174.511719 158.714844 173.996094 C 154.050781 175.851562 149.914062 174.65625 150.03125 169.0625 C 150.054688 167.917969 151.601562 167.269531 151.386719 165.742188 C 151.160156 164.109375 152.828125 163.574219 153.96875 163.59375 C 155.652344 163.625 157.136719 164.84375 157.65625 166.703125 C 156.015625 164.28125 153.175781 164.511719 153.035156 165.226562 C 152.847656 166.160156 153.394531 166.582031 154.742188 166.789062 C 153.851562 166.992188 153.261719 167.679688 154.484375 167.933594 C 156.03125 168.382812 158.027344 169.984375 158.6875 167.84375 C 159.039062 166.84375 159.960938 165.359375 159.335938 164.671875 C 157.570312 162.714844 154.886719 158.21875 156.800781 146.863281 C 157.769531 141.113281 160.761719 139.617188 164.007812 136.34375 C 169.476562 130.824219 174.84375 127.574219 182.660156 125.140625 C 190.398438 122.730469 194.78125 122.996094 202.347656 125.273438 C 207.960938 126.960938 213.484375 129.945312 218.191406 132.425781 C 220.671875 133.734375 223.292969 135.242188 225.207031 137.109375 C 228.734375 140.558594 228.0625 139.722656 229.421875 145.875 C 230.476562 150.644531 237.699219 179.847656 236.246094 184.371094 C 235.621094 186.3125 234.714844 186.449219 233.597656 187.894531 C 234.066406 193.953125 234.636719 190.226562 238.015625 193.109375 C 240.476562 195.210938 241.421875 198.722656 240.71875 201.722656 C 239.261719 207.972656 234.613281 207.382812 230.425781 206.089844 C 231.226562 210.136719 230.75 212.042969 228.4375 213.601562 C 228.839844 221.046875 226.75 226.109375 220.796875 228.234375 C 220.339844 228.417969 219.882812 228.597656 219.421875 228.777344 C 217.046875 230.089844 217.933594 237.46875 210.546875 240.96875 C 206.121094 243.066406 207.335938 239.703125 204.011719 241.847656 C 202.792969 242.636719 201.414062 243.570312 199.921875 244.546875 C 191.265625 250.214844 182.390625 252.164062 170.105469 246.710938 C 164.441406 249.929688 163.214844 249.402344 156.820312 246.789062 C 149.5625 243.828125 147.046875 240.085938 146.027344 236.753906 C 145.820312 236.082031 145.46875 235.539062 144.871094 235.402344 C 140.261719 234.351562 137.511719 230.804688 137.132812 226.382812 C 137.09375 225.882812 136.804688 225.496094 136.480469 225.25 C 132.601562 222.269531 132.4375 218.082031 136.519531 214.824219 C 134.847656 214.554688 133.605469 213.371094 132.953125 212.800781 C 132.800781 212.667969 132.699219 212.542969 132.632812 212.421875 L 132.613281 212.382812 C 132.195312 211.566406 133.386719 211.347656 134.617188 211.324219 C 134.160156 211.011719 133.730469 210.636719 133.351562 210.210938 C 132.390625 209.121094 131.753906 207.691406 131.820312 206.082031 C 132.054688 200.703125 137.253906 198.089844 139.214844 197.34375 C 136.875 195.175781 136.03125 191.773438 138.222656 189.148438 C 140.464844 186.457031 144.816406 184.441406 148.765625 184.652344 C 148.621094 183.390625 148.613281 181.660156 148.910156 180.15625 C 149.144531 178.972656 150.117188 176.828125 151.460938 176.488281 C 152.289062 176.28125 153.019531 176.640625 153.066406 177.703125 " fill-opacity="1" fill-rule="evenodd"/></g></g></g><g clip-path="url(#22d935ee0c)"><g clip-path="url(#917c851c9a)"><g clip-path="url(#80bf0de5ed)"><path fill="#f6f6f6" d="M 159.492188 162.179688 C 158.316406 159.75 158.777344 159.730469 159.464844 156.476562 C 167.824219 153.867188 181.136719 154.296875 189.441406 156.21875 C 191.050781 156.59375 192.078125 156.988281 192.917969 157.265625 C 194.339844 157.734375 195.242188 157.875 197.550781 157.035156 C 198.109375 156.832031 198.621094 156.476562 198.960938 157.027344 C 199.265625 157.523438 199.0625 157.753906 198.765625 158.082031 C 198.113281 158.789062 198.480469 158.585938 199.179688 158.515625 C 200.09375 158.421875 202.199219 159.191406 204.496094 159.976562 C 209.265625 161.601562 215.644531 164.664062 218.441406 168.152344 C 221.25 171.660156 219.601562 175.75 215.476562 174.875 C 213.644531 174.488281 211.878906 173.25 211.628906 172.199219 C 212.992188 173.261719 216.976562 175.191406 218.449219 172.84375 C 219.15625 171.71875 219.210938 170.207031 218.171875 168.773438 C 218.507812 171.027344 216.652344 172.210938 214.527344 171.945312 C 212.566406 171.699219 210.179688 170.261719 210.226562 168.898438 C 210.296875 166.78125 212.265625 166.40625 213.769531 167.277344 C 212.023438 167.117188 211.101562 168.003906 211.328125 168.71875 C 211.53125 169.363281 213.871094 167.933594 214.75 169.722656 C 213.417969 169.128906 212.140625 170.148438 212.445312 170.339844 C 213.820312 171.167969 215.390625 171.207031 216.347656 170.707031 C 217.25 170.238281 217.601562 169.289062 216.714844 168.070312 C 215.378906 166.238281 207.472656 162.53125 204.933594 161.851562 C 204.136719 161.640625 203.609375 161.675781 203.050781 161.949219 C 202.285156 162.320312 201.472656 163.128906 199.863281 164.332031 C 197.726562 163.445312 198.835938 162.730469 195.496094 163.140625 C 192.125 163.558594 192.890625 162.988281 191.898438 162.167969 C 190.507812 161.019531 188.054688 163.226562 187.519531 165.226562 C 187.128906 166.699219 185.359375 164.925781 186.136719 162.851562 C 187.351562 159.609375 189.683594 160.039062 191.160156 158.453125 C 187.269531 155.773438 168.183594 155.1875 162.457031 157.097656 L 164.28125 157.652344 C 165.582031 157.703125 167.527344 156.90625 170.28125 159.921875 C 170.828125 160.523438 171.269531 160.777344 171.382812 161.0625 C 171.476562 161.304688 171.636719 161.34375 171.679688 161.230469 C 171.734375 161.089844 171.542969 160.617188 171.394531 160.300781 C 171.28125 160.066406 171.621094 159.957031 172.273438 160.566406 C 172.722656 160.984375 173.574219 162.710938 174.078125 163.765625 C 174.339844 164.316406 174.195312 164.332031 173.703125 164.523438 C 172.96875 164.816406 172.808594 164.816406 172.5625 164.785156 C 172.015625 164.707031 172.265625 163.996094 171.441406 163.425781 C 170.367188 162.683594 169.628906 163.691406 168.421875 162.605469 C 167.929688 162.164062 167.933594 161.960938 167.722656 162 C 167.574219 162.027344 167.648438 162.707031 167.359375 162.765625 C 167.242188 162.785156 167.046875 162.734375 166.886719 162.425781 C 165.714844 160.144531 165.316406 159.007812 163.652344 158.917969 C 164.542969 159.382812 165.238281 160.902344 165.464844 162.015625 C 165.550781 162.449219 165.25 162.386719 164.828125 162.40625 C 163.976562 162.449219 162.476562 161.707031 161.753906 162.292969 C 161.472656 162.519531 161.566406 162.957031 161.023438 163.128906 C 160.65625 163.242188 160.027344 163.28125 159.492188 162.179688 Z M 174.257812 192.632812 C 175.605469 193.363281 176.203125 193.441406 176.535156 193.351562 C 177.023438 193.214844 176.9375 192.71875 177.789062 193.382812 C 178.925781 194.277344 179.628906 195.367188 180.855469 196.351562 C 183.910156 198.800781 189.578125 200.976562 193.203125 200.703125 C 195.183594 200.554688 195.25 201.753906 193.144531 201.863281 C 190.90625 201.980469 187.652344 201.640625 185.570312 200.613281 C 185.238281 200.449219 184.917969 200.167969 184.53125 200.519531 C 180.238281 204.414062 174.582031 202.082031 171.019531 198.03125 C 166.453125 200.550781 161.054688 200.347656 156.425781 197.898438 C 153.753906 196.511719 153.554688 193.117188 152.058594 191.71875 C 150.199219 189.980469 148.886719 187.371094 148.75 186.039062 C 145.4375 186.167969 141.710938 187.234375 139.234375 189.886719 C 136.082031 193.273438 139.882812 196.078125 141.5 197.886719 C 139.1875 198.484375 133.507812 202.121094 133.285156 206.140625 C 133.019531 210.878906 138.695312 212.371094 140.324219 210.640625 C 139.820312 211.820312 138.832031 212.34375 137.699219 212.359375 C 137.472656 212.605469 135.683594 212.347656 134.507812 212.457031 C 136.269531 213.710938 139.285156 214.136719 141.054688 211.410156 C 142.011719 209.9375 142.382812 211.222656 141.929688 212.1875 C 140.503906 215.25 131.058594 217.625 136.898438 223.652344 C 136.4375 222.015625 138.386719 216.546875 143.039062 216.246094 C 144.132812 216.179688 144.136719 216.992188 143.28125 217.132812 C 141.613281 217.402344 139.632812 218.304688 138.601562 222.183594 C 139.472656 220.777344 141.703125 218.320312 144.515625 219.195312 C 143.050781 219.109375 139.605469 221.6875 139.113281 225.652344 C 138.839844 229.8125 142.007812 232.9375 144.96875 233.195312 C 144.847656 231.980469 144.503906 230.757812 144.328125 229.539062 C 144.230469 228.855469 144.539062 228.953125 144.605469 229.164062 C 144.773438 229.6875 145.761719 229.578125 146.429688 229.40625 C 147.339844 236.925781 149.65625 240.707031 155.613281 243.429688 C 163.4375 247.003906 166.25 242.863281 168.898438 242.933594 C 169.800781 242.960938 172.195312 243.742188 173.246094 243.933594 C 182.046875 245.542969 192.164062 244.847656 198.210938 237.273438 C 200.941406 233.964844 199.410156 229.316406 198.722656 228.140625 C 201.410156 231.160156 201.617188 234.097656 201.371094 236.78125 C 202.183594 235.660156 202.304688 232.589844 201.699219 231.15625 C 203.359375 233.082031 202.785156 235.894531 202.023438 237.457031 C 202.660156 236.925781 203.140625 236.394531 203.496094 235.875 C 205.421875 233.070312 203.671875 230.566406 202.371094 229.421875 C 205.058594 230.359375 205.875 233.578125 204.707031 236.242188 C 208.328125 235.640625 211.445312 231.878906 211.953125 228.289062 C 212.15625 226.875 212.199219 225.679688 212.128906 224.65625 C 211.78125 219.511719 207.265625 215.65625 208.140625 215.9375 C 210.640625 216.734375 212.59375 220.816406 213.234375 224.328125 C 216.769531 224.308594 219.304688 223.289062 220.703125 220.828125 C 222.871094 217.015625 220.738281 212.914062 219.433594 211.675781 C 222.117188 212.984375 222.738281 215.414062 222.839844 217.804688 C 224.515625 214.472656 224.09375 209.933594 221.132812 206.199219 C 219.078125 203.597656 221.019531 203.542969 222.246094 205.277344 C 223.113281 206.511719 224.09375 208.003906 224.699219 209.660156 C 224.996094 210.472656 226.042969 208.492188 226.195312 207.886719 C 226.65625 206.046875 224.902344 204.488281 225.253906 203.699219 C 225.480469 203.1875 226.640625 203.695312 226.660156 203.121094 C 226.691406 202.261719 225.960938 201.992188 225.527344 201.289062 C 225.140625 200.664062 224.796875 200.367188 225.445312 200.457031 C 225.742188 200.5 226.078125 200.230469 226.332031 200.582031 C 226.574219 200.914062 226.785156 200.734375 226.542969 200.363281 C 226.214844 199.851562 226.046875 199.484375 225.828125 199.371094 C 225.398438 199.148438 225.285156 198.152344 226.304688 198.777344 C 228.015625 199.832031 228.734375 203.96875 229.410156 203.179688 C 230.792969 201.570312 230.632812 197.097656 230.03125 195.179688 C 229.1875 192.503906 227.726562 190.222656 225.949219 189.167969 C 224.933594 188.5625 225.460938 188 226.519531 188.671875 C 227.417969 189.242188 228.003906 189.59375 228.835938 190.738281 C 228.160156 189.199219 227.964844 188.507812 227.089844 188.179688 C 226.066406 187.800781 226.109375 187 227.359375 187.421875 C 228.851562 187.929688 228.992188 189.089844 230.058594 190.699219 C 230.90625 191.976562 231.464844 192.410156 231.820312 192.273438 C 232.332031 192.074219 232.421875 190.679688 232.351562 188.902344 C 232.34375 188.757812 232.339844 188.335938 231.957031 188.265625 C 231.097656 187.734375 228.992188 187.25 227.898438 186.863281 C 224.929688 184.996094 227.09375 185.140625 224.15625 186.257812 C 222.246094 186.980469 220.050781 186.125 218.757812 184.554688 C 218.03125 183.664062 217.351562 182.796875 217.746094 181.253906 C 218.113281 179.808594 220.160156 179.625 221.050781 178.460938 C 221.671875 177.652344 222.078125 176.320312 222.054688 173.917969 C 222.015625 169.652344 219.773438 166.761719 218.410156 165.640625 C 220.007812 165.980469 221.027344 167.59375 221.882812 169.308594 C 222.140625 159.097656 224.472656 148.738281 215.828125 142.445312 C 204.328125 134.078125 176.796875 133.859375 164.222656 138.988281 C 159.40625 140.953125 158.414062 142.78125 158.152344 149.257812 C 157.941406 154.542969 156.375 160.144531 159.746094 163.535156 C 160.757812 164.546875 160.167969 167.269531 159.347656 169.023438 C 159.078125 169.605469 159.285156 170.203125 159.515625 170.445312 C 160.25 171.285156 161.722656 172.273438 162.5625 171.734375 C 163.175781 171.339844 163.296875 172.101562 162.554688 172.394531 C 161.570312 172.785156 160.621094 172.425781 160.179688 171.976562 C 159.964844 171.761719 159.789062 171.863281 159.882812 172.175781 C 160.074219 172.808594 160.308594 172.84375 161.054688 173.179688 C 161.425781 173.347656 161.386719 173.691406 160.988281 173.714844 C 160.359375 173.75 160.195312 173.746094 159.957031 173.757812 C 159.519531 173.773438 159.601562 173.800781 159.683594 174.0625 C 159.730469 174.214844 159.78125 174.441406 159.734375 174.78125 C 159.699219 175.050781 159.847656 174.976562 160.113281 174.9375 C 162.847656 174.523438 165.753906 174.097656 168.179688 174.796875 C 167.40625 174.855469 161.015625 175.511719 160.640625 176.6875 C 160.476562 177.191406 161.246094 177.566406 161.734375 177.855469 C 162.351562 178.230469 162.152344 179.277344 161.382812 178.746094 C 160.808594 178.351562 159.644531 178.144531 158.765625 178.652344 C 159.507812 178.6875 160.398438 179.007812 160.875 179.367188 C 162.210938 180.386719 161.210938 181.394531 160.6875 180.988281 C 160.140625 180.566406 159.230469 180.527344 158.769531 180.824219 C 159.734375 181.328125 159.902344 181.964844 160.097656 182.359375 C 160.738281 183.664062 159.03125 183.789062 158.746094 183.929688 C 161.019531 184.574219 159.699219 185.015625 160.378906 185.511719 C 162.984375 187.417969 166.796875 185.710938 168.097656 183.96875 C 169.015625 182.738281 169.460938 183.460938 168.589844 184.832031 C 165.242188 190.105469 153.003906 187.648438 152.246094 178.285156 C 152.210938 177.859375 152.105469 177.578125 151.472656 177.679688 C 150.832031 177.78125 149.996094 178.484375 149.890625 180.277344 C 149.691406 183.570312 150.242188 188.429688 153.3125 190.847656 C 154.753906 191.984375 155.378906 194.496094 156.292969 195.355469 C 159.039062 197.941406 168.714844 198.523438 172.894531 192.960938 C 173.410156 192.273438 173.933594 192.457031 174.257812 192.632812 Z M 193.683594 175.820312 C 192.953125 176.179688 192.148438 176.828125 191.605469 177.300781 C 191.410156 177.46875 191.390625 177.65625 191.195312 177.449219 C 191.015625 177.261719 190.664062 177.167969 190 177.261719 C 190.828125 177.378906 190.957031 177.847656 191.191406 177.972656 C 191.320312 178.042969 191.503906 178.261719 191.320312 178.460938 C 191.0625 178.742188 190.941406 179.300781 190.863281 179.699219 C 190.839844 179.824219 190.691406 179.808594 190.570312 179.765625 C 190.3125 179.675781 189.90625 179.632812 189.453125 179.785156 C 189.996094 179.824219 190.191406 179.960938 190.28125 180.039062 C 190.320312 180.078125 190.335938 180.128906 190.347656 180.214844 C 190.410156 180.625 190.464844 181.394531 190.429688 181.886719 C 190.410156 182.195312 190.199219 182.128906 189.941406 182.121094 L 186.949219 182.011719 C 188.046875 182.34375 189.304688 182.5625 190.796875 182.722656 C 190.882812 185.003906 191.855469 185.972656 191.773438 186.484375 C 191.726562 186.761719 191.363281 186.902344 190.355469 187.046875 C 195.503906 188.511719 202.480469 188.011719 204.414062 185.433594 C 204.902344 184.78125 205.71875 185.347656 205.042969 186.167969 C 202.121094 189.71875 193.726562 189.632812 189.972656 188.3125 C 186.59375 187.125 184.160156 184.777344 184.691406 181.050781 C 185.535156 175.121094 191.105469 174.992188 193.683594 175.820312 Z M 219.363281 181.277344 C 221.042969 180.265625 222.144531 179.371094 222.523438 178.109375 C 222.730469 177.40625 223.285156 177.675781 224.28125 177.710938 C 226.253906 177.78125 226.445312 177.820312 226.09375 181.332031 C 225.917969 183.042969 225.433594 183.191406 224.671875 183.960938 C 223.777344 184.867188 222.757812 185.261719 221.625 184.886719 C 219.785156 184.277344 218.019531 182.09375 219.363281 181.277344 Z M 167.949219 172.621094 C 166.988281 172.402344 166.246094 172.042969 165.3125 172.417969 C 165.070312 172.515625 164.761719 172.5625 164.542969 172.742188 C 164.21875 173.015625 163.148438 173.097656 163.480469 172.175781 C 163.652344 171.6875 164.117188 172.015625 164.449219 170.695312 C 164.550781 170.285156 165.015625 169.890625 165.476562 169.773438 C 166.375 169.546875 167.75 169.789062 168.765625 170.167969 C 170.652344 170.875 171.730469 171.804688 172.480469 172.675781 C 173.050781 173.335938 171.328125 174.054688 170.660156 173.617188 C 169.742188 173.019531 169.449219 172.960938 167.949219 172.621094 Z M 192.949219 173.464844 C 191.871094 173.175781 191.046875 172.746094 190.003906 173.121094 C 189.496094 173.304688 188.910156 173.457031 188.433594 173.625 C 187.785156 173.859375 187.570312 173.121094 187.957031 172.773438 C 188.351562 172.417969 188.667969 172.625 189.039062 171.167969 C 189.152344 170.71875 189.671875 170.296875 190.183594 170.1875 C 191.191406 169.972656 192.722656 170.300781 193.859375 170.773438 C 195.96875 171.640625 197.277344 173.125 198.117188 174.128906 C 198.753906 174.886719 197.628906 175.574219 196.878906 175.058594 C 195.851562 174.351562 194.625 173.914062 192.949219 173.464844 Z M 165.847656 170.5 C 165.324219 170.5625 164.953125 170.8125 165.0625 171.226562 C 165.148438 171.53125 165.363281 171.363281 166.015625 171.046875 C 166.441406 170.84375 166.941406 171.15625 166.996094 170.90625 C 167.046875 170.660156 166.484375 170.421875 165.847656 170.5 Z M 190.710938 171.332031 C 190.210938 171.25 189.808594 171.382812 189.832031 171.796875 C 189.847656 172.101562 190.085938 172.003906 190.757812 171.886719 C 191.199219 171.8125 191.605469 172.242188 191.703125 172.023438 C 191.804688 171.804688 191.328125 171.433594 190.710938 171.332031 Z M 200.632812 176.929688 C 200.421875 176.84375 200.1875 176.972656 200.113281 177.21875 C 200.042969 177.460938 200.15625 177.734375 200.371094 177.820312 C 200.378906 177.820312 203.910156 179.394531 205.019531 183.109375 C 205.09375 183.359375 205.328125 183.492188 205.539062 183.414062 C 205.753906 183.332031 205.867188 183.066406 205.796875 182.816406 C 204.558594 178.679688 200.644531 176.933594 200.632812 176.929688 Z M 206.085938 176.957031 C 205.914062 176.789062 205.65625 176.816406 205.511719 177.011719 C 205.367188 177.210938 205.394531 177.507812 205.566406 177.675781 C 205.800781 177.898438 206.027344 178.15625 206.234375 178.429688 C 206.90625 179.316406 207.371094 180.390625 207.496094 181.457031 C 207.621094 182.496094 207.429688 183.539062 206.808594 184.402344 C 206.683594 184.570312 206.546875 184.734375 206.394531 184.886719 C 206.226562 185.050781 206.207031 185.351562 206.355469 185.546875 C 206.503906 185.746094 206.765625 185.769531 206.933594 185.601562 C 207.121094 185.410156 207.292969 185.210938 207.4375 185.007812 C 208.222656 183.921875 208.464844 182.628906 208.3125 181.34375 C 208.160156 180.089844 207.625 178.839844 206.851562 177.816406 C 206.621094 177.511719 206.363281 177.222656 206.085938 176.957031 Z M 207.886719 176.546875 C 208.054688 176.722656 208.316406 176.710938 208.464844 176.519531 C 208.617188 176.332031 208.601562 176.03125 208.4375 175.855469 C 208.433594 175.851562 206.183594 173.675781 203.210938 173.714844 C 202.984375 173.71875 202.804688 173.933594 202.8125 174.191406 C 202.816406 174.449219 203.003906 174.660156 203.230469 174.65625 C 205.898438 174.621094 207.882812 176.542969 207.886719 176.546875 Z M 208.144531 170.066406 C 208.3125 169.894531 208.320312 169.59375 208.167969 169.402344 C 208.015625 169.207031 207.753906 169.191406 207.589844 169.367188 C 207.578125 169.378906 203.675781 173.695312 201.246094 172.5625 C 201.039062 172.464844 200.800781 172.582031 200.71875 172.824219 C 200.636719 173.0625 200.742188 173.339844 200.949219 173.4375 C 203.882812 174.804688 208.132812 170.078125 208.144531 170.066406 Z M 198.46875 173.398438 C 198.578125 173.625 198.828125 173.707031 199.023438 173.585938 C 199.21875 173.460938 199.289062 173.171875 199.175781 172.945312 C 199.171875 172.9375 197.289062 169.59375 193.972656 168.792969 L 193.957031 168.789062 C 191.972656 168.3125 189.304688 167.671875 187.761719 169.507812 C 187.605469 169.691406 187.613281 169.992188 187.773438 170.171875 C 187.9375 170.355469 188.199219 170.355469 188.351562 170.167969 C 189.585938 168.699219 192.003906 169.277344 193.800781 169.710938 L 193.816406 169.714844 C 196.792969 170.4375 198.464844 173.390625 198.46875 173.398438 Z M 182.835938 180.609375 C 182.707031 180.394531 182.449219 180.332031 182.265625 180.476562 C 182.078125 180.621094 182.03125 180.914062 182.160156 181.128906 L 182.292969 181.359375 C 182.628906 181.964844 182.761719 182.59375 182.734375 183.121094 C 182.710938 183.597656 182.554688 183.992188 182.308594 184.195312 L 182.265625 184.230469 C 181.898438 184.492188 181.480469 184.53125 181.050781 184.4375 C 180.464844 184.3125 179.859375 183.9375 179.34375 183.511719 C 178.972656 183.203125 178.582031 182.933594 178.152344 182.820312 C 177.691406 182.699219 177.203125 182.757812 176.675781 183.125 C 176.261719 183.414062 175.535156 183.863281 174.738281 184.082031 C 174.230469 184.21875 173.695312 184.265625 173.207031 184.113281 L 173.183594 184.105469 C 172.546875 183.90625 171.984375 183.628906 171.589844 183.222656 C 171.21875 182.839844 170.988281 182.3125 170.972656 181.589844 C 170.953125 180.722656 171.375 179.347656 172.035156 178.214844 L 172.050781 178.191406 C 172.570312 177.308594 173.234375 176.601562 173.921875 176.464844 C 174.144531 176.421875 174.289062 176.179688 174.25 175.921875 C 174.210938 175.664062 173.996094 175.492188 173.773438 175.535156 C 172.84375 175.71875 172.003906 176.585938 171.371094 177.65625 L 171.355469 177.679688 C 170.605469 178.960938 170.128906 180.5625 170.152344 181.605469 C 170.175781 182.617188 170.511719 183.363281 171.046875 183.917969 C 171.546875 184.441406 172.222656 184.78125 172.976562 185.015625 L 173 185.023438 C 173.636719 185.222656 174.3125 185.171875 174.9375 185 C 175.832031 184.753906 176.644531 184.253906 177.105469 183.929688 C 177.429688 183.707031 177.714844 183.667969 177.976562 183.738281 C 178.273438 183.816406 178.574219 184.027344 178.875 184.277344 C 179.476562 184.769531 180.191406 185.210938 180.910156 185.367188 C 181.523438 185.5 182.140625 185.429688 182.703125 185.027344 L 182.789062 184.960938 C 183.238281 184.59375 183.515625 183.949219 183.550781 183.1875 C 183.589844 182.476562 183.414062 181.648438 182.980469 180.859375 Z M 179.945312 176.511719 C 180.132812 176.660156 180.386719 176.605469 180.511719 176.394531 C 180.636719 176.179688 180.585938 175.882812 180.402344 175.738281 C 180.398438 175.734375 178.988281 174.308594 177.664062 174.210938 L 174.6875 174.34375 C 174.460938 174.355469 174.285156 174.574219 174.296875 174.835938 C 174.308594 175.09375 174.503906 175.296875 174.730469 175.289062 L 177.648438 175.15625 C 178.632812 175.25 179.941406 176.511719 179.945312 176.511719 Z M 180.800781 174.460938 C 180.96875 174.636719 181.230469 174.625 181.382812 174.4375 C 181.53125 174.246094 181.519531 173.945312 181.351562 173.769531 C 181.347656 173.769531 180.179688 172.632812 179.285156 172.371094 C 178.824219 172.234375 178.207031 172.222656 177.578125 172.335938 C 176.992188 172.4375 176.375 172.652344 175.84375 172.964844 C 175.644531 173.082031 175.570312 173.367188 175.671875 173.597656 C 175.777344 173.828125 176.027344 173.921875 176.226562 173.804688 C 176.675781 173.539062 177.203125 173.355469 177.710938 173.265625 C 178.234375 173.175781 178.730469 173.179688 179.09375 173.285156 C 179.808594 173.496094 180.800781 174.460938 180.800781 174.460938 Z M 172.777344 171.1875 C 172.976562 171.316406 173.226562 171.238281 173.332031 171.011719 C 173.441406 170.785156 173.371094 170.496094 173.171875 170.367188 C 173.164062 170.363281 169.878906 168.234375 168.210938 167.835938 C 167.25 167.605469 166.710938 167.851562 166.136719 168.113281 C 165.710938 168.308594 165.253906 168.515625 164.527344 168.449219 C 164.304688 168.433594 164.109375 168.625 164.09375 168.886719 C 164.082031 169.144531 164.253906 169.371094 164.476562 169.390625 C 165.386719 169.46875 165.933594 169.222656 166.445312 168.988281 C 166.902344 168.78125 167.332031 168.585938 168.054688 168.757812 C 169.597656 169.128906 172.769531 171.183594 172.777344 171.1875 Z M 175.394531 167.3125 C 175.269531 167.097656 175.015625 167.035156 174.828125 167.175781 C 174.640625 167.320312 174.589844 167.609375 174.714844 167.828125 C 174.71875 167.832031 175.9375 169.9375 175.925781 171.207031 C 175.921875 171.46875 176.105469 171.6875 176.332031 171.691406 C 176.554688 171.695312 176.742188 171.492188 176.746094 171.230469 C 176.761719 169.667969 175.398438 167.320312 175.394531 167.3125 Z M 160.816406 168.351562 C 160.632812 168.199219 160.375 168.242188 160.246094 168.449219 C 160.113281 168.660156 160.15625 168.957031 160.339844 169.109375 C 160.34375 169.113281 162.359375 171.058594 163.320312 170.835938 C 164.117188 170.648438 164.316406 170.46875 164.316406 170.46875 C 164.511719 170.34375 164.582031 170.058594 164.46875 169.832031 C 164.359375 169.601562 164.109375 169.523438 163.914062 169.644531 C 163.914062 169.644531 163.804688 169.757812 163.148438 169.910156 C 162.652344 170.023438 160.820312 168.355469 160.816406 168.351562 Z M 181.773438 178.488281 C 181.851562 178.246094 181.746094 177.972656 181.535156 177.878906 C 181.324219 177.785156 181.085938 177.902344 181.007812 178.144531 C 180.917969 178.414062 180.800781 178.632812 180.667969 178.796875 C 180.464844 179.050781 180.214844 179.199219 179.960938 179.253906 C 179.703125 179.308594 179.4375 179.277344 179.214844 179.179688 C 179.082031 179.121094 178.964844 179.035156 178.867188 178.9375 C 178.703125 178.757812 178.441406 178.769531 178.289062 178.957031 C 178.136719 179.144531 178.148438 179.445312 178.316406 179.621094 C 178.488281 179.804688 178.699219 179.953125 178.929688 180.054688 C 179.296875 180.21875 179.714844 180.269531 180.125 180.179688 C 180.535156 180.089844 180.941406 179.855469 181.273438 179.441406 C 181.472656 179.191406 181.648438 178.875 181.773438 178.488281 Z M 203.242188 176.21875 C 203.46875 176.210938 203.640625 175.988281 203.628906 175.730469 C 203.617188 175.46875 203.425781 175.265625 203.199219 175.277344 C 203.195312 175.277344 201.507812 175.378906 201.277344 175.097656 C 201.121094 174.90625 200.859375 174.894531 200.699219 175.070312 C 200.535156 175.246094 200.527344 175.546875 200.683594 175.734375 C 201.207031 176.375 203.238281 176.21875 203.242188 176.21875 Z M 219.425781 175.625 C 219.617188 175.488281 219.667969 175.195312 219.546875 174.976562 C 219.421875 174.753906 219.164062 174.691406 218.976562 174.832031 C 218.71875 175.019531 218.410156 175.183594 218.070312 175.308594 C 217.078125 175.675781 215.820312 175.78125 214.699219 175.597656 C 213.628906 175.425781 212.707031 174.996094 212.316406 174.3125 C 212.261719 174.214844 212.21875 174.109375 212.1875 174 C 212.113281 173.753906 211.878906 173.617188 211.667969 173.699219 C 211.453125 173.777344 211.339844 174.042969 211.410156 174.292969 C 211.464844 174.476562 211.539062 174.65625 211.632812 174.820312 C 212.167969 175.757812 213.308594 176.324219 214.597656 176.53125 C 215.832031 176.730469 217.226562 176.613281 218.328125 176.203125 C 218.742188 176.050781 219.117188 175.855469 219.425781 175.625 Z M 212.417969 176.0625 C 212.277344 175.859375 212.019531 175.820312 211.84375 175.980469 C 211.664062 176.136719 211.636719 176.433594 211.773438 176.640625 L 211.953125 176.898438 C 212.800781 178.039062 214.066406 178.738281 215.308594 178.992188 C 216.578125 179.253906 217.847656 179.046875 218.636719 178.382812 L 218.742188 178.289062 C 218.921875 178.128906 218.949219 177.832031 218.808594 177.628906 C 218.671875 177.421875 218.410156 177.382812 218.234375 177.542969 L 218.140625 177.625 C 217.53125 178.136719 216.5 178.28125 215.441406 178.0625 C 214.367188 177.847656 213.28125 177.25 212.574219 176.292969 Z M 201.375 200.886719 C 200.597656 200.988281 199.667969 201.105469 199.117188 201.128906 C 198.046875 201.175781 196.207031 200.941406 195.1875 200.347656 C 194.164062 199.753906 192.136719 198.835938 191.9375 197.976562 C 191.738281 197.113281 192.359375 196.769531 193.917969 197.839844 C 195.480469 198.914062 195.570312 199.113281 197.542969 199.691406 C 199.207031 200.179688 202.179688 199.449219 202.386719 200.117188 C 202.441406 200.289062 202.507812 200.730469 201.375 200.886719 Z M 211.574219 182.460938 C 211.761719 183.046875 212.132812 185.09375 211.902344 186.199219 C 211.675781 187.308594 211.640625 190.058594 209.363281 192.402344 C 207.085938 194.75 204.667969 196.78125 203.683594 196.964844 C 202.699219 197.144531 201.527344 197.609375 199.859375 197.6875 C 198.195312 197.761719 197.695312 197.28125 197.324219 197.800781 C 196.949219 198.320312 197.242188 198.628906 198.4375 198.757812 C 199.636719 198.886719 201.222656 198.769531 201.859375 198.785156 C 202.496094 198.804688 202.132812 199.550781 203.71875 199.433594 C 205.304688 199.316406 205.683594 198.933594 208.375 196.933594 C 211.066406 194.933594 212.488281 192.992188 212.835938 191.007812 C 213.183594 189.027344 213.140625 184.585938 212.515625 183.058594 C 211.890625 181.53125 211.34375 180.914062 211.574219 182.460938 Z M 185.234375 202.949219 C 184.144531 205.488281 182.929688 206.710938 181.21875 206.925781 C 178.199219 207.300781 174.238281 204.511719 172.019531 202.175781 C 171.539062 201.671875 171.703125 200.347656 172.796875 201.285156 C 175.222656 203.351562 177.46875 204.753906 180.59375 204.050781 C 183.035156 203.507812 183.765625 202.558594 184.019531 202 C 184.273438 201.4375 185.902344 201.394531 185.234375 202.949219 " fill-opacity="1" fill-rule="evenodd"/></g></g></g></svg>